<?xml version="1.0" encoding="UTF-8"?>
<!--
  - Copyright 2024 The Chromium Authors. All rights reserved.
  - Use of this source code is governed by a BSD-style license that can be
  - found in the LICENSE file.
  -->

<svg id="Layer_1" data-name="Layer 1" xmlns="http://www.w3.org/2000/svg" xmlns:xlink="http://www.w3.org/1999/xlink" version="1.1" viewBox="0 0 500 500">
  <defs>
    <style>
      .cls-1 {
        clip-path: url(#clippath);
      }

      .cls-2 {
        fill: none;
      }

      .cls-2, .cls-3, .cls-4 {
        stroke-width: 0px;
      }

      .cls-5 {
        clip-path: url(#clippath-1);
      }

      .cls-6 {
        clip-path: url(#clippath-4);
      }

      .cls-7 {
        clip-path: url(#clippath-3);
      }

      .cls-8 {
        clip-path: url(#clippath-2);
      }

      .cls-9 {
        clip-path: url(#clippath-7);
      }

      .cls-10 {
        clip-path: url(#clippath-8);
      }

      .cls-11 {
        clip-path: url(#clippath-6);
      }

      .cls-12 {
        clip-path: url(#clippath-5);
      }

      .cls-13 {
        clip-path: url(#clippath-9);
      }

      .cls-3 {
        fill: #ced0d5;
      }

      .cls-4 {
        fill: #6d707d;
      }
    </style>
    <clipPath id="clippath">
      <path class="cls-2" d="M438.5,113.5l-39.2,39.2,39.2,39.2h-44.8l-16.8-16.8-22.4-22.4,39.2-39.2h44.8,0ZM393.7,46.4l-72.8,72.8,22.4,22.4,95.1-95.1h-44.8,0Z"/>
    </clipPath>
    <clipPath id="clippath-1">
      <path class="cls-2" d="M438.5,113.5l-39.2,39.2,39.2,39.2h-44.8l-16.8-16.8-22.4-22.4,39.2-39.2h44.8,0ZM393.7,46.4l-72.8,72.8,22.4,22.4,95.1-95.1h-44.8,0Z"/>
    </clipPath>
    <clipPath id="clippath-2">
      <path class="cls-2" d="M438.5,113.5l-39.2,39.2,39.2,39.2h-44.8l-16.8-16.8-22.4-22.4,39.2-39.2h44.8,0ZM393.7,46.4l-72.8,72.8,22.4,22.4,95.1-95.1h-44.8,0Z"/>
    </clipPath>
    <clipPath id="clippath-3">
      <path class="cls-2" d="M438.5,113.5l-39.2,39.2,39.2,39.2h-44.8l-16.8-16.8-22.4-22.4,39.2-39.2h44.8,0ZM393.7,46.4l-72.8,72.8,22.4,22.4,95.1-95.1h-44.8,0Z"/>
    </clipPath>
    <clipPath id="clippath-4">
      <path class="cls-2" d="M438.5,113.5l-39.2,39.2,39.2,39.2h-44.8l-16.8-16.8-22.4-22.4,39.2-39.2h44.8,0ZM393.7,46.4l-72.8,72.8,22.4,22.4,95.1-95.1h-44.8,0Z"/>
    </clipPath>
    <clipPath id="clippath-5">
      <path class="cls-2" d="M438.5,113.5l-39.2,39.2,39.2,39.2h-44.8l-16.8-16.8-22.4-22.4,39.2-39.2h44.8,0ZM393.7,46.4l-72.8,72.8,22.4,22.4,95.1-95.1h-44.8,0Z"/>
    </clipPath>
    <clipPath id="clippath-6">
      <path class="cls-2" d="M438.5,113.5l-39.2,39.2,39.2,39.2h-44.8l-16.8-16.8-22.4-22.4,39.2-39.2h44.8,0ZM393.7,46.4l-72.8,72.8,22.4,22.4,95.1-95.1h-44.8,0Z"/>
    </clipPath>
    <clipPath id="clippath-7">
      <path class="cls-2" d="M438.5,113.5l-39.2,39.2,39.2,39.2h-44.8l-16.8-16.8-22.4-22.4,39.2-39.2h44.8,0ZM393.7,46.4l-72.8,72.8,22.4,22.4,95.1-95.1h-44.8,0Z"/>
    </clipPath>
    <clipPath id="clippath-8">
      <path class="cls-2" d="M438.5,113.5l-39.2,39.2,39.2,39.2h-44.8l-16.8-16.8-22.4-22.4,39.2-39.2h44.8,0ZM393.7,46.4l-72.8,72.8,22.4,22.4,95.1-95.1h-44.8,0Z"/>
    </clipPath>
    <clipPath id="clippath-9">
      <path class="cls-2" d="M438.5,113.5l-39.2,39.2,39.2,39.2h-44.8l-16.8-16.8-22.4-22.4,39.2-39.2h44.8,0ZM393.7,46.4l-72.8,72.8,22.4,22.4,95.1-95.1h-44.8,0Z"/>
    </clipPath>
  </defs>
  <rect class="cls-4" x="172.3" y="235.6" width="154.3" height="30.9"/>
  <path class="cls-4" d="M367.2,190.4l-31.1-32.7h-62.1v30.9h77.6c5.5,0,10.7.6,15.6,1.8Z"/>
  <path class="cls-4" d="M103.2,295.3c-12.2-12.2-18.3-26.9-18.3-44.2s6.1-32,18.3-44.2c12.2-12.2,26.9-18.3,44.2-18.3h77.6v-30.9h-77.6c-25.8,0-47.9,9.1-66.1,27.3-18.2,18.2-27.3,40.2-27.3,66.1s9.1,47.9,27.3,66.1c18.2,18.2,40.2,27.3,66.1,27.3h77.6v-30.9h-77.6c-17.3,0-32-6.1-44.2-18.3h0Z"/>
  <path class="cls-4" d="M399.1,210.4c10,11.5,15,25,15,40.7s-6.1,32-18.3,44.2c-12.2,12.2-26.9,18.3-44.2,18.3h-77.6v30.9h77.6c25.8,0,47.9-9.1,66.1-27.3,18.2-18.2,27.3-40.2,27.3-66.1s-3-28.4-9-40.7h-36.9Z"/>
  <path class="cls-4" d="M438.5,113.5l-39.2,39.2,39.2,39.2h-44.8l-16.8-16.8h0l-22.4-22.4,39.2-39.2h44.8,0ZM393.7,46.4l-72.8,72.8,22.4,22.4,95.1-95.1h-44.8,0Z"/>
  <g>
    <g class="cls-1">
      <polygon class="cls-4" points="438.5 113.5 438.5 113.5 438.5 113.5 393.7 113.5 354.6 152.7 377 175.1 438.5 113.5"/>
    </g>
    <g>
      <path class="cls-3" d="M438.5,113.5l-39.2,39.2,39.2,39.2h-44.8l-16.8-16.8-22.4-22.4,39.2-39.2h44.8,0ZM393.7,46.4l-72.8,72.8,22.4,22.4,95.1-95.1h-44.8,0Z"/>
      <g class="cls-5">
        <polygon class="cls-3" points="438.5 113.5 438.5 113.5 438.5 113.5 393.7 113.5 354.6 152.7 377 175.1 438.5 113.5"/>
      </g>
    </g>
  </g>
  <path class="cls-4" d="M438.5,113.5l-39.2,39.2,39.2,39.2h-44.8l-16.8-16.8h0l-22.4-22.4,39.2-39.2h44.8,0ZM393.7,46.4l-72.8,72.8,22.4,22.4,95.1-95.1h-44.8,0Z"/>
  <g>
    <g class="cls-8">
      <polygon class="cls-4" points="343.4 141.5 321 119.1 393.7 46.4 438.5 46.4 343.4 141.5"/>
    </g>
    <g>
      <path class="cls-3" d="M438.5,113.5l-39.2,39.2,39.2,39.2h-44.8l-16.8-16.8-22.4-22.4,39.2-39.2h44.8,0ZM393.7,46.4l-72.8,72.8,22.4,22.4,95.1-95.1h-44.8,0Z"/>
      <g class="cls-7">
        <polygon class="cls-3" points="343.4 141.5 321 119.1 393.7 46.4 438.5 46.4 343.4 141.5"/>
      </g>
    </g>
  </g>
  <path class="cls-4" d="M438.5,113.5l-39.2,39.2,39.2,39.2h-44.8l-16.8-16.8h0l-22.4-22.4,39.2-39.2h44.8,0ZM393.7,46.4l-72.8,72.8,22.4,22.4,95.1-95.1h-44.8,0Z"/>
  <g>
    <g class="cls-6">
      <polygon class="cls-4" points="377 175.1 393.7 191.9 438.5 191.9 438.5 191.9 399.3 152.7 377 175.1"/>
    </g>
    <g>
      <path class="cls-3" d="M438.5,113.5l-39.2,39.2,39.2,39.2h-44.8l-16.8-16.8-22.4-22.4,39.2-39.2h44.8,0ZM393.7,46.4l-72.8,72.8,22.4,22.4,95.1-95.1h-44.8,0Z"/>
      <g class="cls-12">
        <polygon class="cls-3" points="377 175.1 393.7 191.9 438.5 191.9 438.5 191.9 399.3 152.7 377 175.1"/>
      </g>
    </g>
  </g>
  <path class="cls-4" d="M438.5,113.5l-39.2,39.2,39.2,39.2h-44.8l-16.8-16.8h0l-22.4-22.4,39.2-39.2h44.8,0ZM393.7,46.4l-72.8,72.8,22.4,22.4,95.1-95.1h-44.8,0Z"/>
  <g>
    <g class="cls-11">
      <polygon class="cls-4" points="377 175.1 410.2 163.6 399.3 152.7 377 175.1"/>
    </g>
    <g>
      <path class="cls-3" d="M438.5,113.5l-39.2,39.2,39.2,39.2h-44.8l-16.8-16.8-22.4-22.4,39.2-39.2h44.8,0ZM393.7,46.4l-72.8,72.8,22.4,22.4,95.1-95.1h-44.8,0Z"/>
      <g class="cls-9">
        <polygon class="cls-3" points="377 175.1 410.2 163.6 399.3 152.7 377 175.1"/>
      </g>
    </g>
  </g>
  <path class="cls-4" d="M438.5,113.5l-39.2,39.2,39.2,39.2h-44.8l-16.8-16.8h0l-22.4-22.4,39.2-39.2h44.8,0ZM393.7,46.4l-72.8,72.8,22.4,22.4,95.1-95.1h-44.8,0Z"/>
  <g>
    <g class="cls-10">
      <rect class="cls-4" x="361.1" y="136.9" width="31.7" height="31.7" transform="translate(2.4 311.3) rotate(-45)"/>
    </g>
    <g>
      <path class="cls-3" d="M438.5,113.5l-39.2,39.2,39.2,39.2h-44.8l-16.8-16.8-22.4-22.4,39.2-39.2h44.8,0ZM393.7,46.4l-72.8,72.8,22.4,22.4,95.1-95.1h-44.8,0Z"/>
      <g class="cls-13">
        <rect class="cls-3" x="361.1" y="136.9" width="31.7" height="31.7" transform="translate(2.4 311.3) rotate(-45)"/>
      </g>
    </g>
  </g>
  <path class="cls-4" d="M438.5,113.5l-39.2,39.2,39.2,39.2h-44.8l-16.8-16.8h0l-22.4-22.4,39.2-39.2h44.8,0ZM393.7,46.4l-72.8,72.8,22.4,22.4,95.1-95.1h-44.8,0Z"/>
</svg>