<?xml version="1.0" encoding="UTF-8"?>
<!--
  - Copyright 2024 The Chromium Authors. All rights reserved.
  - Use of this source code is governed by a BSD-style license that can be
  - found in the LICENSE file.
  -->

<svg id="Layer_1" data-name="Layer 1" xmlns="http://www.w3.org/2000/svg" viewBox="0 0 500 500">
  <defs>
    <style>
      .cls-1 {
        fill: #fff;
        stroke-width: 0px;
      }
    </style>
  </defs>
  <g>
    <path class="cls-1" d="M361.31217448,185.14371745c-12.17919922-4.39624023-22.91162109-11.8269043-31.30517578-21.3671875h-48.94873047v21.14868164h74.83496094c1.83569336,0,3.63745117.08422852,5.41894531.21850586Z"/>
    <path class="cls-1" d="M101.70084635,295.95621745c-12.7421875-12.7421875-19.11328125-28.06079102-19.11328125-45.95629883,0-17.89526367,6.37109375-33.21411133,19.11328125-45.95629883,12.74560547-12.74560547,28.06591797-19.1184082,45.96142578-19.1184082h74.83496094v-21.14868164h-74.83496094c-23.85571289,0-44.19042969,8.41186523-61.00366211,25.2355957-16.81323242,16.82397461-25.2199707,37.16015625-25.2199707,61.0090332,0,23.84863281,8.40673828,44.17797852,25.2199707,60.98779297,16.81323242,16.80957031,37.14794922,25.21459961,61.00366211,25.21459961h74.83496094v-21.14868164h-74.83496094c-17.89550781,0-33.21582031-6.37304688-45.96142578-19.11865234Z"/>
    <rect class="cls-1" x="177.7569987" y="239.42545573" width="148.04150391" height="21.14892578"/>
    <path class="cls-1" d="M412.78141276,185.13395182c-8.04492188,2.9074707-16.71337891,4.50048828-25.74853516,4.50048828-2.47924805,0-4.9284668-.12841797-7.34741211-.36181641,8.09472656,3.17919922,15.48925781,8.09082031,22.16943359,14.77099609,12.74194336,12.7421875,19.11303711,28.06103516,19.11303711,45.95629883,0,17.89550781-6.37109375,33.21411133-19.11303711,45.95629883-12.74584961,12.74560547-28.06616211,19.11865234-45.96166992,19.11865234h-74.83496094v21.14868164h74.83496094c23.85595703,0,44.19042969-8.41186523,61.00366211-25.23583984,16.81323242-16.82373047,25.2199707-37.16015625,25.2199707-61.0090332,0-23.84863281-8.40673828-44.17797852-25.2199707-60.98754883-1.34643555-1.34619141-2.72387695-2.61865234-4.11547852-3.85717773Z"/>
  </g>
  <path class="cls-1" d="M387.03222656,45.69889323c-37.4765625,0-67.96679688,30.49023438-67.96679688,67.96777344s30.49023438,67.96777344,67.96679688,67.96777344c37.47753906,0,67.96777344-30.49023438,67.96777344-67.96777344s-30.49023438-67.96777344-67.96777344-67.96777344ZM392.77954102,133.00236003l-.00024414.00024414,20.81103516,20.81103516h-.00219727l.00219727.00195312h-23.78393555l-8.91992188-8.921875-11.88989258-11.88769531.00097656-.0012207-.00512695-.00512695,20.81176758-20.81201172,23.78613281.00219727-20.81152344,20.81152344.00073242.00097656ZM363.04858398,127.05777995l-11.89404297-11.89379883,38.65185547-38.65185547h23.78393555l-50.54174805,50.5456543Z"/>
</svg>