<svg width="18" height="16" viewBox="0 0 18 16" fill="none" xmlns="http://www.w3.org/2000/svg">
  <path d="M7.99966 7.40022L5.39966 4.80022L5.59966 3.40022C5.59966 3.30022 5.59966 3.20022 5.59966 3.10022L4.39966 1.90022C4.39966 1.90022 4.19966 1.80022 4.09966 1.90022L2.69966 2.20022L4.39966 3.90022L3.39966 4.90022C2.79966 4.30022 1.69966 3.20022 1.69966 3.20022C1.69966 3.20022 1.49966 4.10022 1.39966 4.60022C1.39966 4.70022 1.39966 4.80022 1.39966 4.90022L2.59966 6.10022C2.59966 6.10022 2.79966 6.20022 2.89966 6.10022L4.29966 5.90022L6.89966 8.50022" stroke="#6C707E" stroke-miterlimit="10" stroke-linejoin="round"/>
  <path d="M11.6997 4.00018L5.39966 10.2002" stroke="#6C707E" stroke-width="1.4" stroke-miterlimit="10"/>
  <path d="M5.56914 10.5047L5.14488 10.0804C4.87151 9.80706 4.42829 9.80706 4.15493 10.0804L1.39721 12.8381C1.12384 13.1115 1.12384 13.5547 1.39721 13.8281L1.82148 14.2524C2.09484 14.5257 2.53806 14.5257 2.81142 14.2524L5.56914 11.4946C5.84251 11.2213 5.84251 10.7781 5.56914 10.5047Z" stroke="#6C707E" stroke-miterlimit="10"/>
  <path d="M13.8999 2.5002L12.1999 4.5002L11.0999 3.4002L13.0999 1.7002L13.8999 2.5002Z" stroke="#6C707E" stroke-miterlimit="10" stroke-linejoin="round"/>
  <path d="M8.09985 9.40021L13.0999 14.4002L14.0999 13.4002L8.99985 8.40021" stroke="#6C707E" stroke-miterlimit="10" stroke-linejoin="round"/>
  <path d="M11.352 13.0533L11.7056 13.4044L12.0579 13.0521L15.757 9.35358L16.6107 8.5H15.4035H13.9996H13.7925L13.6461 8.64641L10.6465 11.6454L10.2916 12.0002L10.6477 12.3538L11.352 13.0533Z" fill="#0468D7" stroke="white" stroke-miterlimit="10"/>
  <path d="M15.4034 15.4998H16.6105L15.757 14.6463L14.5874 13.4766L15.757 12.3065L16.6102 11.453H15.4034H13.9995H13.7924L13.646 11.5994L12.1223 13.1232L11.7687 13.4768L12.1223 13.8303L13.6461 15.3534L13.7925 15.4998H13.9995H15.4034Z" fill="#0468D7" stroke="white" stroke-miterlimit="10"/>
</svg>
