<?xml version="1.0" encoding="UTF-8"?>
<!--
  - Copyright 2024 The Chromium Authors. All rights reserved.
  - Use of this source code is governed by a BSD-style license that can be
  - found in the LICENSE file.
  -->

<svg id="Layer_1" data-name="Layer 1" xmlns="http://www.w3.org/2000/svg" xmlns:xlink="http://www.w3.org/1999/xlink" version="1.1" viewBox="0 0 500 500">
  <defs>
    <style>
      .cls-1 {
        clip-path: url(#clippath);
      }

      .cls-2 {
        fill: none;
      }

      .cls-2, .cls-3 {
        stroke-width: 0px;
      }

      .cls-4 {
        clip-path: url(#clippath-1);
      }

      .cls-5 {
        clip-path: url(#clippath-4);
      }

      .cls-6 {
        clip-path: url(#clippath-3);
      }

      .cls-7 {
        clip-path: url(#clippath-2);
      }

      .cls-3 {
        fill: #6d707d;
      }
    </style>
    <clipPath id="clippath">
      <path class="cls-2" d="M443.9,117.5l-39.2,39.2,39.2,39.2h-44.8l-16.8-16.8-22.4-22.4,39.2-39.2h44.8,0ZM399.1,50.3l-72.8,72.8,22.4,22.4,95.1-95.1h-44.8.1Z"/>
    </clipPath>
    <clipPath id="clippath-1">
      <path class="cls-2" d="M443.9,117.5l-39.2,39.2,39.2,39.2h-44.8l-16.8-16.8-22.4-22.4,39.2-39.2h44.8,0ZM399.1,50.3l-72.8,72.8,22.4,22.4,95.1-95.1h-44.8.1Z"/>
    </clipPath>
    <clipPath id="clippath-2">
      <path class="cls-2" d="M443.9,117.5l-39.2,39.2,39.2,39.2h-44.8l-16.8-16.8-22.4-22.4,39.2-39.2h44.8,0ZM399.1,50.3l-72.8,72.8,22.4,22.4,95.1-95.1h-44.8.1Z"/>
    </clipPath>
    <clipPath id="clippath-3">
      <path class="cls-2" d="M443.9,117.5l-39.2,39.2,39.2,39.2h-44.8l-16.8-16.8-22.4-22.4,39.2-39.2h44.8,0ZM399.1,50.3l-72.8,72.8,22.4,22.4,95.1-95.1h-44.8.1Z"/>
    </clipPath>
    <clipPath id="clippath-4">
      <path class="cls-2" d="M443.9,117.5l-39.2,39.2,39.2,39.2h-44.8l-16.8-16.8-22.4-22.4,39.2-39.2h44.8,0ZM399.1,50.3l-72.8,72.8,22.4,22.4,95.1-95.1h-44.8.1Z"/>
    </clipPath>
  </defs>
  <g>
    <path class="cls-3" d="M443.9,117.5l-39.2,39.2,39.2,39.2h-44.8l-16.8-16.8h0l-22.4-22.4,39.2-39.2h44.8,0ZM399.1,50.3l-72.8,72.8,22.4,22.4,95.1-95.1h-44.8.1Z"/>
    <g>
      <path class="cls-3" d="M443.9,117.5l-39.2,39.2,39.2,39.2h-44.8l-16.8-16.8-22.4-22.4,39.2-39.2h44.8,0ZM399.1,50.3l-72.8,72.8,22.4,22.4,95.1-95.1h-44.8.1Z"/>
      <g class="cls-1">
        <polygon class="cls-3" points="443.9 117.5 443.9 117.5 443.9 117.5 399.1 117.5 359.9 156.7 382.3 179 443.9 117.5"/>
      </g>
    </g>
    <path class="cls-3" d="M443.9,117.5l-39.2,39.2,39.2,39.2h-44.8l-16.8-16.8h0l-22.4-22.4,39.2-39.2h44.8,0ZM399.1,50.3l-72.8,72.8,22.4,22.4,95.1-95.1h-44.8.1Z"/>
    <g>
      <path class="cls-3" d="M443.9,117.5l-39.2,39.2,39.2,39.2h-44.8l-16.8-16.8-22.4-22.4,39.2-39.2h44.8,0ZM399.1,50.3l-72.8,72.8,22.4,22.4,95.1-95.1h-44.8.1Z"/>
      <g class="cls-4">
        <polygon class="cls-3" points="348.7 145.5 326.4 123.1 399.1 50.3 443.9 50.3 348.7 145.5"/>
      </g>
    </g>
    <path class="cls-3" d="M443.9,117.5l-39.2,39.2,39.2,39.2h-44.8l-16.8-16.8h0l-22.4-22.4,39.2-39.2h44.8,0ZM399.1,50.3l-72.8,72.8,22.4,22.4,95.1-95.1h-44.8.1Z"/>
    <g>
      <path class="cls-3" d="M443.9,117.5l-39.2,39.2,39.2,39.2h-44.8l-16.8-16.8-22.4-22.4,39.2-39.2h44.8,0ZM399.1,50.3l-72.8,72.8,22.4,22.4,95.1-95.1h-44.8.1Z"/>
      <g class="cls-7">
        <polygon class="cls-3" points="382.3 179 399.1 195.8 443.9 195.8 443.9 195.8 404.7 156.7 382.3 179"/>
      </g>
    </g>
    <path class="cls-3" d="M443.9,117.5l-39.2,39.2,39.2,39.2h-44.8l-16.8-16.8h0l-22.4-22.4,39.2-39.2h44.8,0ZM399.1,50.3l-72.8,72.8,22.4,22.4,95.1-95.1h-44.8.1Z"/>
    <g>
      <path class="cls-3" d="M443.9,117.5l-39.2,39.2,39.2,39.2h-44.8l-16.8-16.8-22.4-22.4,39.2-39.2h44.8,0ZM399.1,50.3l-72.8,72.8,22.4,22.4,95.1-95.1h-44.8.1Z"/>
      <g class="cls-6">
        <polygon class="cls-3" points="382.3 179 415.5 167.6 404.7 156.7 382.3 179"/>
      </g>
    </g>
    <path class="cls-3" d="M443.9,117.5l-39.2,39.2,39.2,39.2h-44.8l-16.8-16.8h0l-22.4-22.4,39.2-39.2h44.8,0ZM399.1,50.3l-72.8,72.8,22.4,22.4,95.1-95.1h-44.8.1Z"/>
    <g>
      <path class="cls-3" d="M443.9,117.5l-39.2,39.2,39.2,39.2h-44.8l-16.8-16.8-22.4-22.4,39.2-39.2h44.8,0ZM399.1,50.3l-72.8,72.8,22.4,22.4,95.1-95.1h-44.8.1Z"/>
      <g class="cls-5">
        <rect class="cls-3" x="366.5" y="140.8" width="31.7" height="31.7" transform="translate(1.2 316.2) rotate(-45)"/>
      </g>
    </g>
    <path class="cls-3" d="M443.9,117.5l-39.2,39.2,39.2,39.2h-44.8l-16.8-16.8h0l-22.4-22.4,39.2-39.2h44.8,0ZM399.1,50.3l-72.8,72.8,22.4,22.4,95.1-95.1h-44.8.1Z"/>
  </g>
  <g>
    <rect class="cls-3" x="87.9" y="325.2" width="142.4" height="40.8" transform="translate(-197.8 213.7) rotate(-45)"/>
    <path class="cls-3" d="M321,212.5l11.4,11.4,20.3-20.5v35.1l11.4,11.4,31.5-31.5-110.1-115.9c-.9.3-1.7.6-2.5.9-6,2.4-11.6,6.2-16.7,11.3l36,36-21.4,21.4,11.4,11.4-42.6,42.5-43.9-43.9c2-3.7,3.5-7.5,4.5-11.5.9-3.9,1.4-8.1,1.4-12.4,0-16.4-5.7-30.3-17-41.6s-25.2-17-41.6-17-7.6.3-11.1,1-7.1,1.8-10.6,3.4l41.5,41.5-32.5,32.5-41.5-41.5c-1.8,3.6-3,7.1-3.5,10.6-.6,3.5-.9,7.2-.9,11.1,0,16.4,5.7,30.3,17,41.6,11.3,11.3,25.2,17,41.6,17s8.5-.4,12.4-1.3c3.9-.8,7.8-2.4,11.5-4.6l199.3,199.3,28.9-28.9-126.5-126.5,42.6-42.5-.3.2Z"/>
  </g>
</svg>