<?xml version="1.0" encoding="UTF-8"?>
<!--
  - Copyright 2024 The Chromium Authors. All rights reserved.
  - Use of this source code is governed by a BSD-style license that can be
  - found in the LICENSE file.
  -->

<svg id="Layer_1" data-name="Layer 1" xmlns="http://www.w3.org/2000/svg" viewBox="0 0 500 500">
  <defs>
    <style>
      .cls-1 {
        fill: #fff;
        stroke-width: 0px;
      }
    </style>
  </defs>
  <path class="cls-1" d="M311.81385089,331.37630561l-52.920953-53.01386593c-3.00289418,1.38698722-6.06705431,2.47974504-9.1924927,3.27827347-3.1254384.79718463-6.44208398,1.19577386-9.94994909,1.19577386-12.34283445,0-22.83478587-4.3205342-31.4758481-12.96159643-8.64106223-8.63971844-12.96159335-19.13166678-12.96159335-31.47585119,0-3.50112764.38849228-6.87030451,1.16547376-10.10749361.77698456-3.23720143,1.91148324-6.3417617,3.40350219-9.31369312l28.55711677,28.24604679,20.13824298-20.13622112-27.93701099-28.24808097c2.97326906-1.49068749,6.03136978-2.67634591,9.17430832-3.55701224,3.14293855-.88066634,6.45487469-1.3209995,9.93580842-1.3209995,12.34417824,0,22.83679848,4.3205342,31.47786688,12.96159027,8.63971844,8.6397246,12.95957457,19.13167911,12.95957457,31.47585119,0,3.71927853-.37232976,7.14028396-1.1170016,10.2630286-.74600331,3.12274464-1.86502677,6.08254493-3.35704573,8.87940703l53.01385976,52.920953c1.202499,1.2375178,1.80375467,2.7329024,1.80375467,4.48615998s-.58980259,3.21902014-1.7694201,4.39728768l-12.37380953,12.37582831c-1.17826138,1.17826447-2.60161119,1.71555427-4.27003711,1.61186633-1.66708212-.10368794-3.10187267-.75610951-4.30434702-1.95725239Z"/>
  <path class="cls-1" d="M387.03266059,45.69889323c-37.47753906,0-67.96777344,30.49023438-67.96777344,67.96777344s30.49023438,67.96777344,67.96777344,67.96777344,67.96777344-30.49023438,67.96777344-67.96777344-30.49023438-67.96777344-67.96777344-67.96777344ZM392.77948676,133.00236003l-.00024414.00024414,20.81103516,20.81103516h-.00219727l.00219727.00195312h-23.78393555l-8.91992188-8.921875-11.88989258-11.88769531.0012207-.0012207-.00512695-.00512695,20.81176758-20.81201172,23.78588867.00219727-20.81152344,20.81152344.00073242.00097656ZM363.04852973,127.05777995l-11.89379883-11.89379883,38.65161133-38.65185547h23.78393555l-50.54174805,50.5456543Z"/>
  <path class="cls-1" d="M387.15375434,212.96354167v-23.33203125c-.04052734,0-.08056641.00292969-.12109375.00292969-5.80224609,0-11.44628906-.67578125-16.87890625-1.91357422v41.56396484h8.5c8.71484375,0,15.85644531,2.90625,21.83398438,8.88378906s8.88378906,13.11914062,8.88378906,21.83398438-2.90625,15.85644531-8.88378906,21.83398438-13.11914062,8.88378906-21.83398438,8.88378906h-8.5v71.24804688c0,6.33886719-2.20019531,11.62109375-6.72558594,16.14746094-4.52734375,4.52636719-9.80957031,6.7265625-16.1484375,6.7265625h-203.93261719c-6.33886719,0-11.62109375-2.20019531-16.14746094-6.72558594-4.52636719-4.52734375-6.7265625-9.80957031-6.7265625-16.1484375v-51.66894531c11.12988281-1.49511719,21.16992188-5.99023438,29.93847656-13.41796875,11.36230469-9.62695312,17.12304688-22.03515625,17.12304688-36.87890625,0-14.84472656-5.76171875-27.25292969-17.12402344-36.87890625-8.76757812-7.42773438-18.80761719-11.92285156-29.9375-13.41796875v-51.66894531c0-6.33984375,2.20019531-11.62207031,6.7265625-16.14746094,4.52636719-4.52734375,9.80859375-6.72753906,16.14746094-6.72753906h71.24902344v-8.5c0-8.71386719,2.90625-15.85546875,8.88378906-21.83398438,5.97753906-5.97753906,13.11914062-8.88378906,21.83300781-8.88378906,8.71484375,0,15.85644531,2.90625,21.83398438,8.88476562,5.97753906,5.97753906,8.88378906,13.11914062,8.88378906,21.83300781v8.5h38.15063477c-1.6081543-5.44091797-2.62768555-11.12988281-2.97216797-17h-18.8581543c-1.59765625-9.68359375-6.01269531-18.18359375-13.18261719-25.35351562-9.19824219-9.20019531-20.58886719-13.86425781-33.85546875-13.86425781-13.265625,0-24.65625,4.6640625-33.85449219,13.86328125-7.16992188,7.17089844-11.58496094,15.67089844-13.18261719,25.35449219h-54.92871094c-10.92382812,0-20.40039062,3.93847656-28.16894531,11.70605469-7.76660156,7.76757812-11.70507812,17.24511719-11.70507812,28.16894531v68.11035156h8.5c10.56933594,0,19.54785156,3.25390625,27.44921875,9.94726562,7.47753906,6.33496094,11.11230469,14.15527344,11.11230469,23.90820312,0,9.75195312-3.63476562,17.57226562-11.11230469,23.90820312-7.90136719,6.69335938-16.87988281,9.94726562-27.44921875,9.94726562h-8.5v68.11035156c0,10.92285156,3.93847656,20.40039062,11.70605469,28.16894531,7.76757812,7.76660156,17.24511719,11.70507812,28.16796875,11.70507812h203.93261719c10.92285156,0,20.40039062-3.93847656,28.16894531-11.70605469,7.76660156-7.76757812,11.70507812-17.24511719,11.70507812-28.16796875v-54.92675781c9.68359375-1.59863281,18.18457031-6.01367188,25.35546875-13.18359375,9.19824219-9.19921875,13.86230469-20.58984375,13.86230469-33.85546875s-4.6640625-24.65625-13.86230469-33.85546875c-7.17089844-7.16992188-15.671875-11.58496094-25.35546875-13.18359375Z"/>
</svg>