<?xml version="1.0" encoding="UTF-8"?>
<!--
  - Copyright 2024 The Chromium Authors. All rights reserved.
  - Use of this source code is governed by a BSD-style license that can be
  - found in the LICENSE file.
  -->

<svg id="Layer_1" data-name="Layer 1" xmlns="http://www.w3.org/2000/svg" xmlns:xlink="http://www.w3.org/1999/xlink" version="1.1" viewBox="0 0 500 500">
  <defs>
    <style>
      .cls-1 {
        clip-path: url(#clippath);
      }

      .cls-2 {
        fill: none;
      }

      .cls-2, .cls-3, .cls-4 {
        stroke-width: 0px;
      }

      .cls-5 {
        clip-path: url(#clippath-1);
      }

      .cls-6 {
        clip-path: url(#clippath-4);
      }

      .cls-7 {
        clip-path: url(#clippath-3);
      }

      .cls-8 {
        clip-path: url(#clippath-2);
      }

      .cls-9 {
        clip-path: url(#clippath-7);
      }

      .cls-10 {
        clip-path: url(#clippath-8);
      }

      .cls-11 {
        clip-path: url(#clippath-6);
      }

      .cls-12 {
        clip-path: url(#clippath-5);
      }

      .cls-13 {
        clip-path: url(#clippath-9);
      }

      .cls-3 {
        fill: #ced0d5;
      }

      .cls-4 {
        fill: #6d707d;
      }
    </style>
    <clipPath id="clippath">
      <path class="cls-2" d="M440,106.9l-39.2,39.2,39.2,39.2h-44.8l-16.8-16.8-22.4-22.4,39.2-39.2h44.8,0ZM395.2,39.8l-72.8,72.8,22.4,22.4,95.1-95.1h-44.8,0Z"/>
    </clipPath>
    <clipPath id="clippath-1">
      <path class="cls-2" d="M440,106.9l-39.2,39.2,39.2,39.2h-44.8l-16.8-16.8-22.4-22.4,39.2-39.2h44.8,0ZM395.2,39.8l-72.8,72.8,22.4,22.4,95.1-95.1h-44.8,0Z"/>
    </clipPath>
    <clipPath id="clippath-2">
      <path class="cls-2" d="M440,106.9l-39.2,39.2,39.2,39.2h-44.8l-16.8-16.8-22.4-22.4,39.2-39.2h44.8,0ZM395.2,39.8l-72.8,72.8,22.4,22.4,95.1-95.1h-44.8,0Z"/>
    </clipPath>
    <clipPath id="clippath-3">
      <path class="cls-2" d="M440,106.9l-39.2,39.2,39.2,39.2h-44.8l-16.8-16.8-22.4-22.4,39.2-39.2h44.8,0ZM395.2,39.8l-72.8,72.8,22.4,22.4,95.1-95.1h-44.8,0Z"/>
    </clipPath>
    <clipPath id="clippath-4">
      <path class="cls-2" d="M440,106.9l-39.2,39.2,39.2,39.2h-44.8l-16.8-16.8-22.4-22.4,39.2-39.2h44.8,0ZM395.2,39.8l-72.8,72.8,22.4,22.4,95.1-95.1h-44.8,0Z"/>
    </clipPath>
    <clipPath id="clippath-5">
      <path class="cls-2" d="M440,106.9l-39.2,39.2,39.2,39.2h-44.8l-16.8-16.8-22.4-22.4,39.2-39.2h44.8,0ZM395.2,39.8l-72.8,72.8,22.4,22.4,95.1-95.1h-44.8,0Z"/>
    </clipPath>
    <clipPath id="clippath-6">
      <path class="cls-2" d="M440,106.9l-39.2,39.2,39.2,39.2h-44.8l-16.8-16.8-22.4-22.4,39.2-39.2h44.8,0ZM395.2,39.8l-72.8,72.8,22.4,22.4,95.1-95.1h-44.8,0Z"/>
    </clipPath>
    <clipPath id="clippath-7">
      <path class="cls-2" d="M440,106.9l-39.2,39.2,39.2,39.2h-44.8l-16.8-16.8-22.4-22.4,39.2-39.2h44.8,0ZM395.2,39.8l-72.8,72.8,22.4,22.4,95.1-95.1h-44.8,0Z"/>
    </clipPath>
    <clipPath id="clippath-8">
      <path class="cls-2" d="M440,106.9l-39.2,39.2,39.2,39.2h-44.8l-16.8-16.8-22.4-22.4,39.2-39.2h44.8,0ZM395.2,39.8l-72.8,72.8,22.4,22.4,95.1-95.1h-44.8,0Z"/>
    </clipPath>
    <clipPath id="clippath-9">
      <path class="cls-2" d="M440,106.9l-39.2,39.2,39.2,39.2h-44.8l-16.8-16.8-22.4-22.4,39.2-39.2h44.8,0ZM395.2,39.8l-72.8,72.8,22.4,22.4,95.1-95.1h-44.8,0Z"/>
    </clipPath>
  </defs>
  <path class="cls-3" d="M316.6,337.1l-58.9-59c-3.3,1.5-6.8,2.8-10.2,3.6-3.5.9-7.2,1.3-11.1,1.3-13.7,0-25.4-4.8-35-14.4s-14.4-21.3-14.4-35,.4-7.6,1.3-11.2c.9-3.6,2.1-7.1,3.8-10.4l31.8,31.4,22.4-22.4-31.1-31.4c3.3-1.7,6.7-3,10.2-4s7.2-1.5,11.1-1.5c13.7,0,25.4,4.8,35,14.4,9.6,9.6,14.4,21.3,14.4,35s-.4,7.9-1.2,11.4c-.8,3.5-2.1,6.8-3.7,9.9l59,58.9c1.3,1.4,2,3,2,5s-.7,3.6-2,4.9l-13.8,13.8c-1.3,1.3-2.9,1.9-4.8,1.8s-3.5-.8-4.8-2.2h0Z"/>
  <path class="cls-3" d="M440,106.9l-39.2,39.2,39.2,39.2h-44.8l-16.8-16.8h0l-22.4-22.4,39.2-39.2h44.8,0ZM395.2,39.8l-72.8,72.8,22.4,22.4,95.1-95.1h-44.8,0Z"/>
  <g>
    <g class="cls-1">
      <polygon class="cls-3" points="440 106.9 440 106.9 440 106.9 395.2 106.9 356 146.1 378.4 168.5 440 106.9"/>
    </g>
    <g>
      <path class="cls-4" d="M440,106.9l-39.2,39.2,39.2,39.2h-44.8l-16.8-16.8-22.4-22.4,39.2-39.2h44.8,0ZM395.2,39.8l-72.8,72.8,22.4,22.4,95.1-95.1h-44.8,0Z"/>
      <g class="cls-5">
        <polygon class="cls-4" points="440 106.9 440 106.9 440 106.9 395.2 106.9 356 146.1 378.4 168.5 440 106.9"/>
      </g>
    </g>
  </g>
  <path class="cls-3" d="M440,106.9l-39.2,39.2,39.2,39.2h-44.8l-16.8-16.8h0l-22.4-22.4,39.2-39.2h44.8,0ZM395.2,39.8l-72.8,72.8,22.4,22.4,95.1-95.1h-44.8,0Z"/>
  <g>
    <g class="cls-8">
      <polygon class="cls-3" points="344.8 134.9 322.5 112.5 395.2 39.8 440 39.8 344.8 134.9"/>
    </g>
    <g>
      <path class="cls-4" d="M440,106.9l-39.2,39.2,39.2,39.2h-44.8l-16.8-16.8-22.4-22.4,39.2-39.2h44.8,0ZM395.2,39.8l-72.8,72.8,22.4,22.4,95.1-95.1h-44.8,0Z"/>
      <g class="cls-7">
        <polygon class="cls-4" points="344.8 134.9 322.5 112.5 395.2 39.8 440 39.8 344.8 134.9"/>
      </g>
    </g>
  </g>
  <path class="cls-3" d="M440,106.9l-39.2,39.2,39.2,39.2h-44.8l-16.8-16.8h0l-22.4-22.4,39.2-39.2h44.8,0ZM395.2,39.8l-72.8,72.8,22.4,22.4,95.1-95.1h-44.8,0Z"/>
  <g>
    <g class="cls-6">
      <polygon class="cls-3" points="378.4 168.5 395.2 185.3 440 185.3 440 185.3 400.8 146.1 378.4 168.5"/>
    </g>
    <g>
      <path class="cls-4" d="M440,106.9l-39.2,39.2,39.2,39.2h-44.8l-16.8-16.8-22.4-22.4,39.2-39.2h44.8,0ZM395.2,39.8l-72.8,72.8,22.4,22.4,95.1-95.1h-44.8,0Z"/>
      <g class="cls-12">
        <polygon class="cls-4" points="378.4 168.5 395.2 185.3 440 185.3 440 185.3 400.8 146.1 378.4 168.5"/>
      </g>
    </g>
  </g>
  <path class="cls-3" d="M440,106.9l-39.2,39.2,39.2,39.2h-44.8l-16.8-16.8h0l-22.4-22.4,39.2-39.2h44.8,0ZM395.2,39.8l-72.8,72.8,22.4,22.4,95.1-95.1h-44.8,0Z"/>
  <g>
    <g class="cls-11">
      <polygon class="cls-3" points="378.4 168.5 411.6 157 400.8 146.1 378.4 168.5"/>
    </g>
    <g>
      <path class="cls-4" d="M440,106.9l-39.2,39.2,39.2,39.2h-44.8l-16.8-16.8-22.4-22.4,39.2-39.2h44.8,0ZM395.2,39.8l-72.8,72.8,22.4,22.4,95.1-95.1h-44.8,0Z"/>
      <g class="cls-9">
        <polygon class="cls-4" points="378.4 168.5 411.6 157 400.8 146.1 378.4 168.5"/>
      </g>
    </g>
  </g>
  <path class="cls-3" d="M440,106.9l-39.2,39.2,39.2,39.2h-44.8l-16.8-16.8h0l-22.4-22.4,39.2-39.2h44.8,0ZM395.2,39.8l-72.8,72.8,22.4,22.4,95.1-95.1h-44.8,0Z"/>
  <g>
    <g class="cls-10">
      <rect class="cls-3" x="362.6" y="130.3" width="31.7" height="31.7" transform="translate(7.5 310.4) rotate(-45)"/>
    </g>
    <g>
      <path class="cls-4" d="M440,106.9l-39.2,39.2,39.2,39.2h-44.8l-16.8-16.8-22.4-22.4,39.2-39.2h44.8,0ZM395.2,39.8l-72.8,72.8,22.4,22.4,95.1-95.1h-44.8,0Z"/>
      <g class="cls-13">
        <rect class="cls-4" x="362.6" y="130.3" width="31.7" height="31.7" transform="translate(7.5 310.4) rotate(-45)"/>
      </g>
    </g>
  </g>
  <path class="cls-3" d="M440,106.9l-39.2,39.2,39.2,39.2h-44.8l-16.8-16.8h0l-22.4-22.4,39.2-39.2h44.8,0ZM395.2,39.8l-72.8,72.8,22.4,22.4,95.1-95.1h-44.8,0Z"/>
  <path class="cls-3" d="M388.3,206.6l-33.9-33.9v65.3h16.9c6.6,0,11.7,2.1,16.2,6.5,4.5,4.5,6.5,9.6,6.5,16.2s-2.1,11.7-6.5,16.2c-4.5,4.5-9.6,6.5-16.2,6.5h-16.9v80.4c0,4.3-1.3,7.4-4.4,10.4-3.1,3.1-6.2,4.4-10.4,4.4h-206.2c-4.3,0-7.4-1.3-10.4-4.4-3.1-3.1-4.4-6.2-4.4-10.4v-45.3c10-2.5,19.1-7.2,27.3-14.1,13.3-11.2,20.3-26.3,20.3-43.6s-7-32.4-20.3-43.6c-8.2-6.9-17.3-11.7-27.3-14.1v-45.3c0-4.3,1.3-7.4,4.4-10.4,3.1-3.1,6.2-4.4,10.4-4.4h80.4v-16.9c0-6.6,2.1-11.7,6.5-16.2,4.5-4.5,9.6-6.5,16.2-6.5s11.7,2.1,16.2,6.5c4.5,4.5,6.5,9.6,6.5,16.2v16.9h65.3l-33.9-33.9c-2.6-8.7-7.3-16.5-14-23.2-10.8-10.8-24.6-16.5-40.1-16.5s-29.4,5.7-40.1,16.5c-6.7,6.7-11.4,14.5-14,23.2h-49c-13.1,0-25,4.9-34.4,14.3s-14.3,21.2-14.3,34.4v77.2h16.9c8.6,0,15.9,2.6,22.4,8.1,5.7,4.9,8.3,10.4,8.3,17.8s-2.6,13-8.3,17.8c-6.4,5.4-13.7,8.1-22.4,8.1h-16.9v77.2c0,13.1,4.9,25,14.3,34.4,9.3,9.3,21.2,14.3,34.4,14.3h206.2c13.1,0,25-4.9,34.4-14.3s14.3-21.2,14.3-34.4v-49c8.7-2.6,16.5-7.3,23.2-14,10.8-10.8,16.5-24.6,16.5-40.1s-5.7-29.4-16.5-40.1c-6.7-6.7-14.5-11.4-23.2-14v-.2Z"/>
</svg>