<?xml version="1.0" encoding="UTF-8"?>
<!--
  - Copyright 2024 The Chromium Authors. All rights reserved.
  - Use of this source code is governed by a BSD-style license that can be
  - found in the LICENSE file.
  -->

<svg id="Layer_1" data-name="Layer 1" xmlns="http://www.w3.org/2000/svg" viewBox="0 0 500 500">
  <defs>
    <style>
      .cls-1 {
        fill: #2b2d30;
        stroke-width: 0px;
      }
    </style>
  </defs>
  <path class="cls-1" d="M387.03233507,45.69889323c-37.4765625,0-67.96679688,30.49023438-67.96679688,67.96777344s30.49023438,67.96777344,67.96679688,67.96777344c37.47753906,0,67.96777344-30.49023438,67.96777344-67.96777344s-30.49023438-67.96777344-67.96777344-67.96777344ZM392.77940538,133.00236003l-.00024414.00024414,20.81103516,20.81103516h-.00195312l.00195312.00195312h-23.78369141l-8.92016602-8.921875-11.88964844-11.88769531.00097656-.0012207-.00512695-.00512695,20.81176758-20.81201172,23.78588867.00219727-20.81152344,20.81152344.00073242.00097656ZM363.04844835,127.05777995l-11.89379883-11.89379883,38.65185547-38.65185547h23.78369141l-50.54174805,50.5456543Z"/>
  <g>
    <rect class="cls-1" x="89.80403101" y="320.50093597" width="140.29889328" height="26.82413718" transform="translate(-189.26286092 210.90504343) rotate(-45)"/>
    <path class="cls-1" d="M315.83897569,196.99503581l9.76074219,9.76074219,16.93945312-17.2878418v32.16333008l9.76074219,9.76074219,42.11816406-42.12231445c-2.43115234.23583984-4.89355469.36474609-7.38574219.36474609-41.88867188,0-75.96679688-34.07910156-75.96679688-75.96777344,0-2.11962891.10986328-4.21289062.28100586-6.2890625-1.59057617-.17602539-3.20581055-.27490234-4.8527832-.27490234-5.54516602,0-10.76879883.99609375-15.67089844,2.98852539-4.90185547,1.99243164-9.41503906,5.05078125-13.53979492,9.17553711l29.41625977,29.41601562-19.58837891,19.58398438,9.76049805,9.76074219-53.05615234,52.71240234-45.70336914-45.70336914c2.79638672-3.96386719,4.73803711-8.01855469,5.82519531-12.1640625,1.08984375-4.14550781,1.63476562-8.69311523,1.63476562-13.64257812,0-14.59277344-5.05810547-26.94580078-15.17480469-37.05957031-10.11352539-10.11352539-22.46679688-15.17041016-37.05932617-15.17041016-3.09130859,0-6.07543945.2175293-8.95214844.65234375-2.87402344.43481445-5.70751953,1.31616211-8.50097656,2.64453125l37.00585938,37.01025391-31.47558594,31.4753418-37.01025391-37.00561523c-1.39672852,2.79345703-2.29467773,5.62695312-2.69360352,8.50097656-.40209961,2.87670898-.60327148,5.86083984-.60327148,8.95214844,0,14.5925293,5.05688477,26.94580078,15.1706543,37.05932617,10.11352539,10.11669922,22.46655273,15.17480469,37.05932617,15.17480469,4.94946289,0,9.49707031-.52685547,13.64257812-1.58129883,4.14550781-1.05419922,8.20019531-3.01367188,12.1640625-5.87866211l188.99584961,188.99584961,18.9675293-18.9675293-124.32495117-124.32495117,53.05615234-52.71240234Z"/>
  </g>
</svg>