<svg width="16" height="16" viewBox="0 0 16 16" fill="none" xmlns="http://www.w3.org/2000/svg">
  <g clip-path="url(#clip0_1_11)">
    <path d="M10.4415 10.5406L8.29785 8.41135L8.46274 7.26482C8.46274 7.18292 8.46274 7.10103 8.46274 7.01914L7.47339 6.0364C7.47339 6.0364 7.3085 5.9545 7.22605 6.0364L6.0718 6.28208L7.47339 7.67429L6.64893 8.49324C6.15425 8.00187 5.24734 7.10103 5.24734 7.10103C5.24734 7.10103 5.08245 7.83808 5 8.24756C5 8.32945 5 8.41135 5 8.49324L5.98936 9.47598C5.98936 9.47598 6.15425 9.55787 6.23669 9.47598L7.39094 9.31219L9.53454 11.4415" fill="#6D707D"/>
    <path d="M1.50186 6.50329V3.75591C1.50186 3.6494 1.51914 3.58305 1.5415 3.53313C1.56488 3.48093 1.60581 3.42006 1.68733 3.33918C1.74137 3.28555 1.81915 3.23639 1.90844 3.20095C1.99982 3.16468 2.07592 3.15354 2.11282 3.15354H5.22352H5.61317L5.70837 2.7757C5.78646 2.46575 6.04379 2.10305 6.35337 1.79587C6.55969 1.59115 6.85497 1.5 7.22326 1.5C7.59154 1.5 7.88682 1.59115 8.09314 1.79587C8.40272 2.10305 8.66005 2.46575 8.73814 2.7757L8.83334 3.15354H9.22299H12.2226C12.3314 3.15354 12.3998 3.17096 12.4513 3.19371C12.505 3.21736 12.5667 3.25839 12.6481 3.33918C12.702 3.39271 12.7512 3.46939 12.7865 3.55702C12.8227 3.6469 12.8336 3.72106 12.8336 3.75591V6.73228V7.12341L13.2132 7.21758C13.5279 7.29565 13.8942 7.55207 14.2034 7.85886C14.4012 8.0551 14.5 8.33735 14.5 8.82677C14.5 9.07165 14.4748 9.22846 14.4323 9.34642C14.3924 9.45742 14.3273 9.56158 14.2034 9.68444C13.9236 9.96208 13.6496 10.1477 13.1491 10.3463L12.8336 10.4715V10.811V13.8976C12.8336 14.0041 12.8163 14.0705 12.7939 14.1204C12.7705 14.1726 12.7296 14.2335 12.6481 14.3144C12.594 14.368 12.5163 14.4171 12.427 14.4526C12.3356 14.4889 12.2595 14.5 12.2226 14.5H2.11282H2.11096C2.00216 14.5 1.93379 14.4826 1.88222 14.4598C1.82858 14.4362 1.76688 14.3952 1.68547 14.3144C1.63151 14.2608 1.58239 14.1842 1.54706 14.0965C1.51086 14.0067 1.50002 13.9326 1.5 13.8977C1.5 13.8977 1.5 13.8977 1.5 13.8976L1.50162 10.9261C1.95557 10.8226 2.29207 10.5844 2.63352 10.3302L2.662 10.3091L2.68719 10.2841C3.0908 9.88357 3.3905 9.32148 3.3905 8.71654C3.3905 8.1116 3.0908 7.5495 2.68719 7.14901C2.37431 6.83855 1.97675 6.60208 1.50186 6.50329Z" stroke="#5F6368" stroke-miterlimit="10"/>
    <path d="M10.8015 13.0533L11.155 13.4044L11.5074 13.0521L15.2065 9.35358L16.0602 8.5H14.853H13.4491H13.242L13.0956 8.64641L10.0959 11.6454L9.7411 12.0002L10.0971 12.3538L10.8015 13.0533Z" fill="#0468D7" stroke="white" stroke-miterlimit="10"/>
    <path d="M14.8524 15.4999H16.0595L15.206 14.6464L14.0363 13.4768L15.206 12.3066L16.0592 11.4531H14.8524H13.4485H13.2414L13.095 11.5996L11.5713 13.1233L11.2176 13.4769L11.5713 13.8305L13.095 15.3536L13.2415 15.4999H13.4485H14.8524Z" fill="#0468D7" stroke="white" stroke-miterlimit="10"/>
  </g>
  <defs>
    <clipPath id="clip0_1_11">
      <rect width="14" height="14" fill="white" transform="translate(1 1)"/>
    </clipPath>
  </defs>
</svg>
