<?xml version="1.0" encoding="UTF-8"?>
<!--
  - Copyright 2024 The Chromium Authors. All rights reserved.
  - Use of this source code is governed by a BSD-style license that can be
  - found in the LICENSE file.
  -->

<svg id="Layer_1" data-name="Layer 1" xmlns="http://www.w3.org/2000/svg" xmlns:xlink="http://www.w3.org/1999/xlink" version="1.1" viewBox="0 0 500 500">
  <defs>
    <style>
      .cls-1 {
        clip-path: url(#clippath);
      }

      .cls-2 {
        fill: none;
      }

      .cls-2, .cls-3 {
        stroke-width: 0px;
      }

      .cls-4 {
        clip-path: url(#clippath-1);
      }

      .cls-5 {
        clip-path: url(#clippath-4);
      }

      .cls-6 {
        clip-path: url(#clippath-3);
      }

      .cls-7 {
        clip-path: url(#clippath-2);
      }

      .cls-3 {
        fill: #6d707d;
      }
    </style>
    <clipPath id="clippath">
      <path class="cls-2" d="M438.8,114.1l-39.2,39.2,39.2,39.2h-44.8l-16.8-16.8-22.4-22.4,39.2-39.2h44.8,0ZM394,46.9l-72.8,72.8,22.4,22.4,95.1-95.1h-44.8,0Z"/>
    </clipPath>
    <clipPath id="clippath-1">
      <path class="cls-2" d="M438.8,114.1l-39.2,39.2,39.2,39.2h-44.8l-16.8-16.8-22.4-22.4,39.2-39.2h44.8,0ZM394,46.9l-72.8,72.8,22.4,22.4,95.1-95.1h-44.8,0Z"/>
    </clipPath>
    <clipPath id="clippath-2">
      <path class="cls-2" d="M438.8,114.1l-39.2,39.2,39.2,39.2h-44.8l-16.8-16.8-22.4-22.4,39.2-39.2h44.8,0ZM394,46.9l-72.8,72.8,22.4,22.4,95.1-95.1h-44.8,0Z"/>
    </clipPath>
    <clipPath id="clippath-3">
      <path class="cls-2" d="M438.8,114.1l-39.2,39.2,39.2,39.2h-44.8l-16.8-16.8-22.4-22.4,39.2-39.2h44.8,0ZM394,46.9l-72.8,72.8,22.4,22.4,95.1-95.1h-44.8,0Z"/>
    </clipPath>
    <clipPath id="clippath-4">
      <path class="cls-2" d="M438.8,114.1l-39.2,39.2,39.2,39.2h-44.8l-16.8-16.8-22.4-22.4,39.2-39.2h44.8,0ZM394,46.9l-72.8,72.8,22.4,22.4,95.1-95.1h-44.8,0Z"/>
    </clipPath>
  </defs>
  <g>
    <path class="cls-3" d="M438.8,114.1l-39.2,39.2,39.2,39.2h-44.8l-16.8-16.8h0l-22.4-22.4,39.2-39.2h44.8,0ZM394,46.9l-72.8,72.8,22.4,22.4,95.1-95.1h-44.8,0Z"/>
    <g>
      <path class="cls-3" d="M438.8,114.1l-39.2,39.2,39.2,39.2h-44.8l-16.8-16.8-22.4-22.4,39.2-39.2h44.8,0ZM394,46.9l-72.8,72.8,22.4,22.4,95.1-95.1h-44.8,0Z"/>
      <g class="cls-1">
        <polygon class="cls-3" points="438.8 114.1 438.8 114.1 438.8 114.1 394 114.1 354.8 153.2 377.2 175.6 438.8 114.1"/>
      </g>
    </g>
    <path class="cls-3" d="M438.8,114.1l-39.2,39.2,39.2,39.2h-44.8l-16.8-16.8h0l-22.4-22.4,39.2-39.2h44.8,0ZM394,46.9l-72.8,72.8,22.4,22.4,95.1-95.1h-44.8,0Z"/>
    <g>
      <path class="cls-3" d="M438.8,114.1l-39.2,39.2,39.2,39.2h-44.8l-16.8-16.8-22.4-22.4,39.2-39.2h44.8,0ZM394,46.9l-72.8,72.8,22.4,22.4,95.1-95.1h-44.8,0Z"/>
      <g class="cls-4">
        <polygon class="cls-3" points="343.6 142 321.2 119.6 394 46.9 438.8 46.9 343.6 142"/>
      </g>
    </g>
    <path class="cls-3" d="M438.8,114.1l-39.2,39.2,39.2,39.2h-44.8l-16.8-16.8h0l-22.4-22.4,39.2-39.2h44.8,0ZM394,46.9l-72.8,72.8,22.4,22.4,95.1-95.1h-44.8,0Z"/>
    <g>
      <path class="cls-3" d="M438.8,114.1l-39.2,39.2,39.2,39.2h-44.8l-16.8-16.8-22.4-22.4,39.2-39.2h44.8,0ZM394,46.9l-72.8,72.8,22.4,22.4,95.1-95.1h-44.8,0Z"/>
      <g class="cls-7">
        <polygon class="cls-3" points="377.2 175.6 394 192.4 438.8 192.4 438.8 192.4 399.6 153.2 377.2 175.6"/>
      </g>
    </g>
    <path class="cls-3" d="M438.8,114.1l-39.2,39.2,39.2,39.2h-44.8l-16.8-16.8h0l-22.4-22.4,39.2-39.2h44.8,0ZM394,46.9l-72.8,72.8,22.4,22.4,95.1-95.1h-44.8,0Z"/>
    <g>
      <path class="cls-3" d="M438.8,114.1l-39.2,39.2,39.2,39.2h-44.8l-16.8-16.8-22.4-22.4,39.2-39.2h44.8,0ZM394,46.9l-72.8,72.8,22.4,22.4,95.1-95.1h-44.8,0Z"/>
      <g class="cls-6">
        <polygon class="cls-3" points="377.2 175.6 410.4 164.1 399.6 153.2 377.2 175.6"/>
      </g>
    </g>
    <path class="cls-3" d="M438.8,114.1l-39.2,39.2,39.2,39.2h-44.8l-16.8-16.8h0l-22.4-22.4,39.2-39.2h44.8,0ZM394,46.9l-72.8,72.8,22.4,22.4,95.1-95.1h-44.8,0Z"/>
    <g>
      <path class="cls-3" d="M438.8,114.1l-39.2,39.2,39.2,39.2h-44.8l-16.8-16.8-22.4-22.4,39.2-39.2h44.8,0ZM394,46.9l-72.8,72.8,22.4,22.4,95.1-95.1h-44.8,0Z"/>
      <g class="cls-5">
        <rect class="cls-3" x="361.4" y="137.4" width="31.7" height="31.7" transform="translate(2.2 311.6) rotate(-45)"/>
      </g>
    </g>
    <path class="cls-3" d="M438.8,114.1l-39.2,39.2,39.2,39.2h-44.8l-16.8-16.8h0l-22.4-22.4,39.2-39.2h44.8,0ZM394,46.9l-72.8,72.8,22.4,22.4,95.1-95.1h-44.8,0Z"/>
  </g>
  <path class="cls-3" d="M231.8,286.5c14.1,0,26-4.9,35.8-14.7s14.7-21.7,14.7-35.8-4.9-26-14.7-35.8c-9.8-9.8-21.7-14.7-35.8-14.7s-26,4.9-35.8,14.7-14.7,21.7-14.7,35.8,4.9,26,14.7,35.8,21.7,14.7,35.8,14.7h0ZM331.2,357.1l-54.3-54.5c-6.7,4.8-13.9,8.3-21.5,10.6-7.6,2.3-15.5,3.5-23.6,3.5-22.4,0-41.5-7.8-57.2-23.5s-23.5-34.7-23.5-57.2,7.8-41.5,23.5-57.2,34.7-23.5,57.2-23.5,41.5,7.8,57.2,23.5,23.5,34.7,23.5,57.2-1.2,16-3.7,23.6c-2.4,7.6-6,14.8-10.8,21.5l54.8,54.6-21.6,21.2h0v.2ZM114,424.6c-10.2,0-18.8-3.5-25.9-10.6s-10.6-15.7-10.6-25.9v-74.4h30.2v74.4c0,1.6.6,3,1.9,4.3s2.7,1.9,4.3,1.9h74.4v30.2h-74.4,0ZM309.4,424.6v-30.2h74.4c1.6,0,3-.6,4.3-1.9s1.9-2.7,1.9-4.3v-74.4h30.2v74.4c0,10.2-3.5,18.8-10.6,25.9s-15.7,10.6-25.9,10.6h-74.4.1ZM77.5,192.7v-74.4c0-10.2,3.5-18.8,10.6-25.9s15.7-10.6,25.9-10.6h74.4v30.2h-74.4c-1.6,0-3,.6-4.3,1.9s-1.9,2.7-1.9,4.3v74.4h-30.3Z"/>
</svg>