<?xml version="1.0" encoding="UTF-8"?>
<!--
  - Copyright 2024 The Chromium Authors. All rights reserved.
  - Use of this source code is governed by a BSD-style license that can be
  - found in the LICENSE file.
  -->

<svg id="Layer_1" data-name="Layer 1" xmlns="http://www.w3.org/2000/svg" viewBox="0 0 500 500">
  <defs>
    <style>
      .cls-1 {
        fill: #fff;
        stroke-width: 0px;
      }
    </style>
  </defs>
  <path class="cls-1" d="M387.03222656,45.69889323c-37.4765625,0-67.96679688,30.49023438-67.96679688,67.96777344s30.49023438,67.96777344,67.96679688,67.96777344c37.47753906,0,67.96777344-30.49023438,67.96777344-67.96777344s-30.49023438-67.96777344-67.96777344-67.96777344ZM392.77954102,133.00236003l-.00024414.00024414,20.81103516,20.81103516h-.00219727l.00219727.00195312h-23.78393555l-8.91992188-8.921875-11.88989258-11.88769531.00097656-.0012207-.00512695-.00512695,20.81176758-20.81201172,23.78613281.00219727-20.81152344,20.81152344.00073242.00097656ZM363.04858398,127.05777995l-11.89404297-11.89379883,38.65185547-38.65185547h23.78393555l-50.54174805,50.5456543Z"/>
  <path class="cls-1" d="M229.6506763,289.04111042c16.44576298-.00001648,30.45470044-5.78786842,42.02684533-17.36360526,11.57573684-11.57212841,17.36358878-25.58106587,17.36358878-42.02682886,0-16.44573003-5.78785194-30.45651289-17.36358878-42.03221678-11.57212841-11.57214489-25.58108235-17.35821733-42.02682886-17.35821733-16.44576298,0-30.45649642,5.78607244-42.03223326,17.35821733-11.57212841,11.57570389-17.35820086,25.58648675-17.35820086,42.03221678,0,16.44576298,5.78607244,30.45470044,17.35820086,42.02682886,11.57573684,11.57573684,25.58647028,17.36358878,42.03221678,17.36360526ZM338.42156868,353.83067491l-59.60100811-60.01673522c-7.19882951,5.51071152-14.91600388,9.69144561-23.15147368,12.54218579-8.2354698,2.85433213-16.90826783,4.28148996-26.01841059,4.28150643-22.51077182-.00001648-41.63629483-7.87014534-57.37655255-23.61040306-15.74025772-15.7402742-23.61038658-34.86578073-23.61040306-57.37655255,0-22.51075535,7.87014534-41.63627836,23.61040306-57.37656903,15.7402742-15.74025772,34.86579721-23.61038658,57.37655255-23.61038658,22.51077182,0,41.63631131,7.87012886,57.37656903,23.61038658,15.74029067,15.74025772,23.61041953,34.86578073,23.61038658,57.37656903,0,9.11014276-1.44696299,17.7829408-4.34088896,26.01841059-2.89392597,8.2354698-7.09624472,15.95262769-12.60695624,23.15147368l60.14088819,59.72517756-15.40910622,15.28493677ZM112.11700587,422.77217197c-9.94159697,0-18.24186193-3.32946648-24.90078665-9.98839119-6.65892472-6.65892472-9.98839119-14.95918968-9.98839119-24.90078665v-73.09342964h21.5965215v73.09342964c0,3.32585805,1.38398027,6.3727797,4.15193258,9.14072377,2.7679523,2.7679523,5.81486572,4.15193258,9.14072377,4.15193258h73.09342964v21.5965215h-73.09342964ZM314.78956449,422.77217197v-21.5965215h73.09342964c3.32588276,0,6.3727797-1.38398027,9.14072377-4.15193258,2.76797702-2.7679523,4.15193258-5.81486572,4.15193258-9.14072377v-73.09342964h21.5965215v73.09342964c0,9.94159697-3.32947472,18.24186193-9.98839119,24.90078665-6.65891648,6.65892472-14.95922263,9.98839119-24.90078665,9.98839119h-73.09342964ZM77.22782803,185.21043551v-73.09342964c0-9.94156402,3.32946648-18.24187017,9.98839119-24.90078665,6.65892472-6.65891648,14.95918968-9.98839119,24.90078665-9.98839119h73.09342964v21.5965215h-73.09342964c-3.32585805,0-6.3727797,1.38395556-9.14072377,4.15193258-2.7679523,2.76794407-4.15193258,5.814841-4.15193258,9.14072377v73.09342964h-21.5965215Z"/>
</svg>