<?xml version="1.0" encoding="utf-8"?>
<svg version="1.1" width="24" height="24" viewBox="0 0 24 24" xmlns="http://www.w3.org/2000/svg">
  <path d="M 14.08 8.41 L 16.67 11 L 7 11 L 7 13 L 16.67 13 L 14.08 15.59 L 15.5 17 L 20.5 12 L 15.5 7 L 14.08 8.41 M 19 21 C 20.105 21 21 20.105 21 19 L 21 14.33 L 19 16.33 L 19 19 L 5 19 L 5 5 L 19 5 L 19 7.67 L 21 9.67 L 21 5 C 21 3.895 20.105 3 19 3 L 5 3 C 3.89 3 3 3.9 3 5 L 3 19 C 3 20.11 3.89 21 5 21 L 19 21 Z" transform="matrix(-1, 0, 0, -1, 24.000001, 24.000001)"/>
</svg>