<svg width="16" height="16" viewBox="0 0 16 16" fill="none" xmlns="http://www.w3.org/2000/svg">
  <path d="M7.09995 11.5H4.39995C3.49995 11.5 2.69995 11.2 2.09995 10.6C1.49995 9.99998 1.19995 9.19998 1.19995 8.29998C1.19995 7.39998 1.49995 6.69998 2.09995 5.99998C2.69995 5.39998 3.49995 5.09998 4.39995 5.09998H7.09995C7.39995 5.09998 7.59995 5.29998 7.59995 5.59998C7.59995 5.89998 7.39995 6.09998 7.09995 6.09998H4.39995C3.79995 6.09998 3.29995 6.29998 2.79995 6.69998C2.39995 7.09998 2.19995 7.59998 2.19995 8.29998C2.19995 8.99998 2.39995 9.39998 2.79995 9.89998C3.19995 10.4 3.69995 10.5 4.39995 10.5H7.09995C7.39995 10.5 7.59995 10.7 7.59995 11C7.59995 11.3 7.39995 11.5 7.09995 11.5Z" fill="#CED0D6"/>
  <path d="M10.7 8.79993H5.30005C5.00005 8.79993 4.80005 8.59993 4.80005 8.29993C4.80005 7.99993 5.00005 7.79993 5.30005 7.79993H10.7C11 7.79993 11.2 7.99993 11.2 8.29993C11.2 8.59993 11 8.79993 10.7 8.79993Z" fill="#CED0D6"/>
  <path d="M11.7 12.7L15.4 9H14L11 12L11.7 12.7Z" fill="#548AF7"/>
  <path d="M15.4 12H14L12.5 13.5L14 15H15.4L13.9 13.5L15.4 12Z" fill="#548AF7"/>
  <path d="M10.2999 11.3L11.0999 10.5H8.8999C8.5999 10.5 8.3999 10.7 8.3999 11C8.3999 11.3 8.5999 11.5 8.8999 11.5H10.0999L10.2999 11.3Z" fill="#CED0D6"/>
  <path d="M8.8999 6.09998H11.5999C12.1999 6.09998 12.6999 6.29998 13.1999 6.69998C13.6999 7.09998 13.7999 7.49998 13.7999 7.99998H14.7999C14.7999 7.19998 14.4999 6.49998 13.8999 5.99998C13.2999 5.39998 12.4999 5.09998 11.5999 5.09998H8.8999C8.5999 5.09998 8.3999 5.29998 8.3999 5.59998C8.3999 5.89998 8.5999 6.09998 8.8999 6.09998Z" fill="#CED0D6"/>
</svg>
