<svg width="16" height="16" viewBox="0 0 16 16" fill="none" xmlns="http://www.w3.org/2000/svg">
  <g clip-path="url(#clip0_1_84)">
    <path d="M7.12568 5.55017H4.41318C3.62568 5.55017 3.01318 5.81267 2.48818 6.33767C1.96318 6.86267 1.70068 7.47517 1.70068 8.26267C1.70068 9.05017 1.96318 9.66267 2.48818 10.1877C3.01318 10.7127 3.62568 10.9752 4.41318 10.9752H7.12568" stroke="#CED0D6" stroke-miterlimit="10" stroke-linecap="round" stroke-linejoin="round"/>
    <path d="M8.875 10.9752H11.5875C12.375 10.9752 12.9875 10.7127 13.5125 10.1877C14.0375 9.66267 14.3 9.05017 14.3 8.26267C14.3 7.47517 14.0375 6.86267 13.5125 6.33767C12.9875 5.81267 12.375 5.55017 11.5875 5.55017H8.875" stroke="#CED0D6" stroke-miterlimit="10" stroke-linecap="round" stroke-linejoin="round"/>
    <path d="M5.28784 8.26233H10.7128" stroke="#CED0D6" stroke-miterlimit="10" stroke-linecap="round" stroke-linejoin="round"/>
    <path d="M11.352 13.0533C11.5475 13.2474 11.8631 13.2469 12.0579 13.0521L15.757 9.35358C15.9 9.21059 15.9428 8.99552 15.8654 8.80868C15.7881 8.62183 15.6057 8.5 15.4035 8.5H13.9996C13.867 8.5 13.7399 8.55266 13.6461 8.64641L10.6465 11.6454C10.5525 11.7394 10.4998 11.8669 10.5 11.9998C10.5002 12.1328 10.5534 12.2601 10.6477 12.3538L11.352 13.0533Z" fill="#81DDF9" stroke="#1E1F22" stroke-miterlimit="10" stroke-linejoin="round"/>
    <path d="M15.4034 15.4998C15.6057 15.4998 15.788 15.378 15.8654 15.1911C15.9428 15.0043 15.9 14.7893 15.757 14.6463L14.5874 13.4766L15.757 12.3065C15.9 12.1635 15.9427 11.9484 15.8653 11.7616C15.7879 11.5748 15.6056 11.453 15.4034 11.453H13.9995C13.8669 11.453 13.7397 11.5057 13.646 11.5994L12.1223 13.1232C12.0285 13.2169 11.9758 13.3441 11.9758 13.4768C11.9758 13.6094 12.0285 13.7366 12.1223 13.8303L13.6461 15.3534C13.7398 15.4472 13.867 15.4998 13.9995 15.4998H15.4034Z" fill="#81DDF9" stroke="#1E1F22" stroke-miterlimit="10" stroke-linejoin="round"/>
  </g>
  <defs>
    <clipPath id="clip0_1_84">
      <rect width="16" height="16" fill="white"/>
    </clipPath>
  </defs>
</svg>
