<svg width="20" height="20" viewBox="0 0 20 20" fill="none" xmlns="http://www.w3.org/2000/svg">
  <path d="M8.87588 14.5752H5.38788C4.19488 14.5752 3.21188 14.1722 2.38288 13.3432C1.55388 12.5142 1.15088 11.5312 1.15088 10.3382C1.15088 9.1442 1.55388 8.1612 2.38288 7.3322C3.21188 6.50319 4.19488 6.10019 5.38788 6.10019H8.87588C9.28988 6.10019 9.62588 6.4362 9.62588 6.8502C9.62588 7.2642 9.28988 7.6002 8.87588 7.6002H5.38788C4.59188 7.6002 3.99188 7.8452 3.44388 8.3932C2.89588 8.9412 2.65088 9.5412 2.65088 10.3382C2.65088 11.1352 2.89588 11.7342 3.44388 12.2822C3.99188 12.8312 4.59188 13.0752 5.38788 13.0752H8.87588C9.28988 13.0752 9.62588 13.4112 9.62588 13.8252C9.62588 14.2392 9.28988 14.5752 8.87588 14.5752Z" fill="#6C707E"/>
  <path d="M11.125 7.6H14.612C15.409 7.6 16.009 7.845 16.558 8.393C17.105 8.941 17.35 9.54 17.35 10.338C17.35 10.576 17.32 10.793 17.275 11H17.419H18.791C18.821 10.785 18.85 10.568 18.85 10.338C18.85 9.144 18.447 8.161 17.618 7.332C16.788 6.503 15.805 6.1 14.612 6.1H11.125C10.711 6.1 10.375 6.436 10.375 6.85C10.375 7.264 10.711 7.6 11.125 7.6Z" fill="#6C707E"/>
  <path d="M14.9585 13.0463C14.8445 13.0583 14.7345 13.0753 14.6125 13.0753H11.1245C10.7105 13.0753 10.3745 13.4113 10.3745 13.8253C10.3745 14.2393 10.7105 14.5753 11.1245 14.5753H13.4295L14.9585 13.0463Z" fill="#6C707E"/>
  <path d="M13.4882 11.0879H6.51318C6.09918 11.0879 5.76318 10.7519 5.76318 10.3379C5.76318 9.92289 6.09918 9.58789 6.51318 9.58789H13.4882C13.9022 9.58789 14.2382 9.92289 14.2382 10.3379C14.2382 10.7519 13.9022 11.0879 13.4882 11.0879Z" fill="#6C707E"/>
  <path d="M14.8372 16.1608L14.0452 15.3738L17.4192 11.9998H18.9992L14.8372 16.1608Z" fill="#3574F0"/>
  <path d="M18.9988 18.7498H17.4198L15.7048 17.0358L17.4198 15.3218H18.9988L17.2848 17.0358L18.9988 18.7498Z" fill="#3574F0"/>
</svg>
