<svg width="20" height="20" viewBox="0 0 20 20" fill="none" xmlns="http://www.w3.org/2000/svg">
  <g clip-path="url(#clip0_1_228)">
    <path d="M8.87588 6.85022H5.38838C4.37588 6.85022 3.58838 7.18772 2.91338 7.86272C2.23838 8.53772 1.90088 9.32522 1.90088 10.3377C1.90088 11.3502 2.23838 12.1377 2.91338 12.8127C3.58838 13.4877 4.37588 13.8252 5.38838 13.8252H8.87588" stroke="#CED0D6" stroke-width="1.5" stroke-miterlimit="10" stroke-linecap="round" stroke-linejoin="round"/>
    <path d="M11.125 13.8252H14.6125C15.625 13.8252 16.4125 13.4877 17.0875 12.8127C17.7625 12.1377 18.1 11.3502 18.1 10.3377C18.1 9.32522 17.7625 8.53772 17.0875 7.86272C16.4125 7.18772 15.625 6.85022 14.6125 6.85022H11.125" stroke="#CED0D6" stroke-width="1.5" stroke-miterlimit="10" stroke-linecap="round" stroke-linejoin="round"/>
    <path d="M6.51294 10.3373H13.4879" stroke="#CED0D6" stroke-width="1.5" stroke-miterlimit="10" stroke-linecap="round" stroke-linejoin="round"/>
    <path d="M14.485 16.5156C14.6804 16.7097 14.9961 16.7092 15.1909 16.5144L19.3524 12.3536C19.4954 12.2106 19.5382 11.9955 19.4608 11.8087C19.3834 11.6218 19.2011 11.5 18.9989 11.5H17.4195C17.2869 11.5 17.1597 11.5527 17.066 11.6464L13.6914 15.0203C13.5974 15.1143 13.5447 15.2418 13.5449 15.3747C13.5451 15.5076 13.5983 15.635 13.6926 15.7286L14.485 16.5156Z" fill="#81DDF9" stroke="#1E1F22" stroke-miterlimit="10" stroke-linejoin="round"/>
    <path d="M18.9989 19.2498C19.2011 19.2498 19.3834 19.128 19.4608 18.9411C19.5382 18.7543 19.4954 18.5392 19.3524 18.3962L17.9924 17.0362L19.3525 15.6756C19.4954 15.5326 19.5382 15.3176 19.4608 15.1308C19.3834 14.9439 19.2011 14.8221 18.9989 14.8221H17.4195C17.2869 14.8221 17.1597 14.8748 17.0659 14.9686L15.3518 16.6828C15.258 16.7765 15.2053 16.9037 15.2053 17.0364C15.2053 17.169 15.258 17.2962 15.3518 17.3899L17.066 19.1034C17.1598 19.1971 17.2869 19.2498 17.4195 19.2498H18.9989Z" fill="#81DDF9" stroke="#1E1F22" stroke-miterlimit="10" stroke-linejoin="round"/>
  </g>
  <defs>
    <clipPath id="clip0_1_228">
      <rect width="18" height="18" fill="white" transform="translate(1 1)"/>
    </clipPath>
  </defs>
</svg>
