<svg width="20" height="20" viewBox="0 0 20 20" fill="none" xmlns="http://www.w3.org/2000/svg">
  <g clip-path="url(#clip0_54_1508)">
    <path d="M6.34416 13.9629L2.79916 17.5089C2.74916 17.5599 2.63616 17.5599 2.58716 17.5089L2.04116 16.9629C1.99116 16.9129 1.99116 16.8009 2.04116 16.7509L5.58716 13.2049C5.62316 13.1689 5.66416 13.1609 5.69316 13.1609C5.72116 13.1609 5.76216 13.1689 5.79816 13.2049L6.34416 13.7509C6.39416 13.8009 6.39416 13.9129 6.34416 13.9629ZM5.24216 7.29986L3.44316 7.55686C3.31416 7.68586 3.05716 7.55686 3.05716 7.55686L1.51416 6.01486V5.62886C1.64216 4.98586 1.90016 3.82886 1.90016 3.82886L3.02516 4.95386L4.08516 6.01486L5.14616 4.95386L5.37116 4.72886L3.18516 2.54286L4.98516 2.15686C5.11416 2.02886 5.37116 2.15686 5.37116 2.15686L6.91416 3.69986V4.08586L6.65716 5.88586L9.62616 8.85486L8.20016 10.2579L5.24216 7.29986ZM16.5152 2.91986L16.5652 2.96986L15.3542 4.39486L15.0912 4.13086L16.5152 2.91986ZM14.7522 5.91386L14.8692 6.03086C15.0102 6.17186 15.2012 6.25086 15.3992 6.25086C15.4092 6.25086 15.4202 6.25086 15.4292 6.24986C15.6382 6.24086 15.8352 6.14586 15.9702 5.98586L18.1562 3.41486C18.4092 3.11686 18.3912 2.67486 18.1152 2.39886L17.0872 1.36986C16.8102 1.09186 16.3682 1.07586 16.0712 1.32886L13.5002 3.51486C13.3402 3.64986 13.2442 3.84586 13.2362 4.05586C13.2272 4.26486 13.3062 4.46786 13.4552 4.61586L13.6922 4.85286L10.6952 7.80286L8.24816 5.35586L8.39916 4.29786C8.40916 4.22786 8.41416 4.15686 8.41416 4.08586V3.69986C8.41416 3.30186 8.25616 2.92086 7.97516 2.63986L6.43216 1.09686C6.31816 0.982857 6.18616 0.887859 6.04216 0.815859C5.56016 0.57486 5.04916 0.556858 4.59716 0.706858L2.87116 1.07586C2.33416 1.19186 1.90216 1.59086 1.74716 2.11786C1.72416 2.19586 1.72116 2.27486 1.71116 2.35386C1.63416 2.36386 1.55616 2.36686 1.48016 2.38886C0.95516 2.54186 0.55416 2.96886 0.43516 3.50386C0.43516 3.50386 0.17416 4.68086 0.04316 5.33486C0.02416 5.43186 0.0141602 5.52986 0.0141602 5.62886V6.01486C0.0141602 6.41186 0.17216 6.79386 0.45316 7.07486L1.99616 8.61786C2.11016 8.73186 2.24216 8.82686 2.38616 8.89886C2.84716 9.12986 3.33516 9.15386 3.77416 9.02486L4.71216 8.89086L7.13116 11.3099L6.53016 11.9019C5.90116 11.5429 5.05016 11.6199 4.52616 12.1449L0.98016 15.6909C0.66916 16.0019 0.49716 16.4159 0.49716 16.8569C0.49716 17.2979 0.66916 17.7119 0.98016 18.0239L1.52616 18.5689C1.83716 18.8809 2.25216 19.0529 2.69216 19.0529C3.13316 19.0529 3.54816 18.8809 3.85916 18.5689L7.40516 15.0239C7.96916 14.4579 8.03716 13.5829 7.61016 12.9419L14.7522 5.91386Z" fill="#6C707E"/>
    <path d="M12.3186 9.42695L11.2856 10.5149L13.8156 12.9189L14.8776 11.8579L12.3186 9.42695Z" fill="#6C707E"/>
    <path d="M10.1283 11.8001L9.08325 12.8761L11.5063 15.2281L12.5673 14.1671L10.1283 11.8001Z" fill="#6C707E"/>
    <path d="M16.8565 19.7139H18.6615L16.7035 17.7559L18.6625 15.7969H16.8565L14.8975 17.7559L16.8565 19.7139Z" fill="#3574F0"/>
    <path d="M16.8562 12L13.0002 15.855L13.9052 16.755L18.6622 12H16.8562Z" fill="#3574F0"/>
  </g>
  <defs>
    <clipPath id="clip0_54_1508">
      <rect width="19" height="20" fill="white"/>
    </clipPath>
  </defs>
</svg>
