<svg width="16" height="16" viewBox="0 0 16 16" fill="none" xmlns="http://www.w3.org/2000/svg">
  <path d="M13.9995 8.99985L10.9995 11.9989L11.7045 12.6989L15.4035 8.99985H13.9995Z" fill="#548AF7"/>
  <path d="M13.9996 11.9528L12.4756 13.4768L13.9996 14.9998H15.4036L13.8806 13.4768L15.4036 11.9528H13.9996Z" fill="#548AF7"/>
  <path d="M12.17 3.76318L11.837 3.43018L13.072 2.38018L13.22 2.52718L12.17 3.76318ZM5.216 11.1402L2.458 13.8982C2.38 13.9762 2.253 13.9762 2.175 13.8982L1.751 13.4742C1.673 13.3962 1.673 13.2692 1.751 13.1912L4.508 10.4332C4.547 10.3942 4.599 10.3752 4.65 10.3752C4.701 10.3752 4.753 10.3942 4.791 10.4332L5.216 10.8582C5.282 10.9252 5.283 11.0742 5.216 11.1402ZM4.653 5.54718C4.543 5.43518 4.387 5.38318 4.229 5.40518L2.829 5.60518C2.824 5.60618 2.819 5.60618 2.814 5.60718L1.893 4.68618C1.921 4.54518 1.957 4.37418 1.994 4.20118L3.046 5.25418C3.242 5.44918 3.558 5.44918 3.753 5.25418L4.753 4.25418C4.949 4.05818 4.949 3.74218 4.753 3.54718L3.703 2.49618L4.186 2.39318L5.104 3.31218L5.105 3.32918L4.905 4.72918C4.883 4.88518 4.935 5.04218 5.046 5.15418L7.27 7.37718L6.874 7.76718L4.653 5.54718ZM14.253 2.14618L13.453 1.34618C13.269 1.16218 12.974 1.15218 12.775 1.31918L10.775 3.01918C10.669 3.11018 10.606 3.24118 10.6 3.38018C10.595 3.52018 10.648 3.65518 10.746 3.75418L10.848 3.85518L7.982 6.67618C7.982 6.67618 5.93 4.62318 5.929 4.62218C5.902 4.59518 5.949 4.46918 5.956 4.43618C6.006 4.18518 6.039 3.93318 6.071 3.67918C6.107 3.39118 6.18 2.97418 5.953 2.74618L4.753 1.54718C4.715 1.50918 4.671 1.47718 4.624 1.45318C4.307 1.29418 3.96 1.40918 3.638 1.48518C3.293 1.56618 2.946 1.63618 2.605 1.73518C2.518 1.76118 2.43 1.78818 2.357 1.84118C2.133 2.00318 2.167 2.37418 2.346 2.55418L3.693 3.90018L3.4 4.19318L2.053 2.84618C1.924 2.71718 1.732 2.66718 1.56 2.72018C1.385 2.77118 1.252 2.91318 1.212 3.09218C1.212 3.09218 1.01 3.99818 0.899996 4.60018V4.90018C0.899996 5.03318 0.952997 5.16018 1.046 5.25418L2.246 6.45318C2.394 6.60218 2.626 6.63918 2.828 6.63118C3.09 6.62118 3.346 6.54118 3.604 6.50418C3.777 6.48018 3.95 6.45518 4.123 6.43018L6.161 8.46818L5.131 9.48218C4.691 9.28918 4.161 9.36618 3.801 9.72618L1.043 12.4842C0.575996 12.9522 0.575996 13.7142 1.044 14.1812L1.468 14.6052C1.702 14.8402 2.009 14.9562 2.316 14.9562C2.624 14.9562 2.931 14.8402 3.165 14.6052L5.922 11.8472C6.149 11.6222 6.274 11.3202 6.274 11.0002C6.274 10.8082 6.216 10.6292 6.131 10.4632C6.131 10.4632 11.839 4.84518 11.847 4.85318C11.941 4.94818 12.068 5.00018 12.221 4.99918C12.36 4.99318 12.491 4.93018 12.581 4.82418L14.28 2.82418C14.449 2.62518 14.438 2.33018 14.253 2.14618Z" fill="#CED0D6"/>
  <path d="M8.6499 8.75732L10.7589 10.8253L11.4659 10.1183L9.3499 8.04332L8.6499 8.75732Z" fill="#CED0D6"/>
  <path d="M7.74609 9.7539L9.78809 11.7959L10.2931 11.2919L10.4951 11.0889L8.45309 9.0469L7.74609 9.7539Z" fill="#CED0D6"/>
</svg>
