<svg width="16" height="16" viewBox="0 0 16 16" fill="none" xmlns="http://www.w3.org/2000/svg">
  <path d="M10.4415 10.5406L8.29749 8.41159C8.29749 8.41159 8.46249 7.10059 8.46249 7.01959L7.47349 6.03659L6.07149 6.28159L7.47349 7.67459L6.64849 8.49359C6.15449 8.00159 5.24749 7.10059 5.24749 7.10059C5.24749 7.10059 5.00049 8.41159 5.00049 8.49359L5.98949 9.47559L7.39049 9.31259L9.53449 11.4416" fill="#CED0D6"/>
  <path d="M2.09049 14.0058L2.00049 13.8978L2.00149 11.2908C2.39049 11.1338 2.69849 10.9038 2.95249 10.7168L3.03949 10.6398C3.58049 10.1028 3.89049 9.40182 3.89049 8.71582C3.89049 8.03082 3.58049 7.33082 3.03949 6.79482C2.73949 6.49582 2.38549 6.26982 2.00149 6.12782L1.99349 3.74582L2.11249 3.65282H6.00349C6.04649 3.47982 6.09049 3.30682 6.13449 3.13382C6.22749 2.76282 6.43149 2.32981 6.76649 2.11981C7.01449 1.96582 7.34249 1.95582 7.60449 2.08482C7.79949 2.18082 7.95549 2.34581 8.06849 2.53181C8.16849 2.69781 8.24449 2.88381 8.29649 3.07082C8.31349 3.12881 8.41649 3.65282 8.44449 3.65282L12.2435 3.64782L12.3345 3.75582V7.51482L13.0935 7.70282C13.2295 7.73682 13.4095 7.85382 13.5945 7.99982H14.8695C14.7965 7.80782 14.6965 7.64382 14.5555 7.50482C14.3205 7.27082 13.8485 6.85982 13.3345 6.73282V3.75582C13.3345 3.64182 13.3035 3.50582 13.2505 3.37182C13.1895 3.21982 13.1035 3.08681 13.0005 2.98381C12.8815 2.86681 12.7705 2.78782 12.6545 2.73681C12.5275 2.68081 12.3855 2.65281 12.2225 2.65281H9.22249C9.21849 2.65281 9.13849 2.39882 9.12849 2.37381C8.87849 1.77582 8.37849 1.24481 7.74449 1.06181C7.32249 0.938814 6.85749 0.976815 6.45649 1.15681C5.95849 1.37982 5.62049 1.79881 5.37549 2.27381C5.36049 2.30381 5.21649 2.65281 5.22349 2.65281H2.11249C1.99649 2.65281 1.85849 2.68281 1.72449 2.73581C1.57149 2.79681 1.43749 2.88281 1.33649 2.98381C1.21849 3.09981 1.13849 3.20982 1.08649 3.32782C1.02949 3.45282 1.00249 3.59282 1.00249 3.75582V6.90982L1.40049 6.99282C1.75349 7.06682 2.06749 7.23782 2.33549 7.50382C2.68849 7.85382 2.89049 8.29582 2.89049 8.71582C2.89049 9.13682 2.68849 9.57882 2.33549 9.92882C2.00149 10.1768 1.73849 10.3598 1.39049 10.4388L1.00149 10.5268L1.00049 13.8978C1.00049 14.0128 1.02949 14.1508 1.08349 14.2838C1.14449 14.4348 1.23149 14.5678 1.33349 14.6688C1.45149 14.7868 1.56249 14.8658 1.68149 14.9178C1.80749 14.9738 1.94849 14.9998 2.11249 14.9998H12.0345L11.0355 14.0008L2.09049 14.0058Z" fill="#CED0D6"/>
  <path d="M12.3418 13.8936L12.3398 13.0616L11.9248 13.4766L12.3418 13.8936Z" fill="#548AF7"/>
  <path d="M13.2502 14.3252C13.2072 14.4202 13.1402 14.5122 13.0552 14.6062L13.4482 15.0002H14.8532L13.3342 13.4812V13.8972C13.3342 14.0592 13.3072 14.2002 13.2502 14.3252Z" fill="#81DDF9"/>
  <path d="M14.8525 11.9531H13.4485L13.3335 12.0671V13.4721L14.8525 11.9531Z" fill="#548AF7"/>
  <path d="M13.0551 14.6067C13.1401 14.5127 13.2081 14.4207 13.2501 14.3257C13.3071 14.2007 13.3341 14.0597 13.3341 13.8977V13.4817L13.3291 13.4767L13.3341 13.4717V12.0677L12.3401 13.0617L12.3421 13.8937L13.0551 14.6067Z" fill="#81DDF9"/>
  <path d="M13.4492 9L10.4492 11.999L11.1542 12.698L14.8522 9H13.4492Z" fill="#548AF7"/>
  <path d="M13.4483 15H14.8523L13.3293 13.477L14.8523 11.953H13.4483L11.9253 13.477L13.4483 15Z" fill="#548AF7"/>
</svg>
