<svg width="20" height="20" viewBox="0 0 20 20" fill="none" xmlns="http://www.w3.org/2000/svg">
  <g clip-path="url(#clip0_1_162)">
    <path d="M13.1387 13.2666L10.3827 10.529L10.5947 9.05491C10.5947 8.94961 10.5947 8.84432 10.5947 8.73903L9.32265 7.47551C9.32265 7.47551 9.11064 7.37021 9.00464 7.47551L7.52061 7.79139L9.32265 9.58137L8.26262 10.6343C7.62661 10.0025 6.46059 8.84432 6.46059 8.84432C6.46059 8.84432 6.24858 9.79196 6.14258 10.3184C6.14258 10.4237 6.14258 10.529 6.14258 10.6343L7.41461 11.8978C7.41461 11.8978 7.62661 12.0031 7.73261 11.8978L9.21665 11.6872L11.9727 14.4249" fill="#CED0D6"/>
    <path d="M3.26967 18C2.88877 18 2.63484 17.874 2.3809 17.622C2.12697 17.3701 2 16.9921 2 16.7402L2.00213 12.8346C2.63696 12.8346 3.01786 12.5827 3.52573 12.2047C3.90663 11.8268 4.16057 11.3228 4.16057 10.8189C4.16057 10.315 3.90663 9.81102 3.52573 9.43307C3.14483 9.05512 2.63696 8.80315 2.00213 8.80315V5.14961C2.00213 4.77165 2.12909 4.51969 2.38303 4.26772C2.63696 4.01575 3.01786 3.88976 3.2718 3.88976H6.82688C6.95385 3.38583 7.33475 2.88189 7.71565 2.50394C8.09655 2.12598 8.60442 2 9.11229 2C9.62016 2 10.128 2.12598 10.5089 2.50394C10.8898 2.88189 11.2707 3.38583 11.3977 3.88976H14.8258C15.2067 3.88976 15.4607 4.01575 15.7146 4.26772C15.9685 4.51969 16.0955 4.89764 16.0955 5.14961V8.55118C16.6034 8.67717 17.1112 9.05512 17.4921 9.43307C17.873 9.81102 18 10.315 18 10.9449C18 11.5748 17.873 11.9528 17.4921 12.3307C17.1112 12.7087 16.7303 12.9606 16.0955 13.2126V16.7402C16.0955 17.1181 15.9685 17.3701 15.7146 17.622C15.4607 17.874 15.0798 18 14.8258 18H3.2718H3.26967Z" stroke="#CED0D6" stroke-width="1.5" stroke-miterlimit="10" stroke-linejoin="round"/>
    <path d="M13.7017 16.11L14.0552 16.4611L14.4076 16.1088L19.1636 11.3536L20.0173 10.5H18.8101H17.0051H16.798L16.6516 10.6464L12.7949 14.5023L12.4401 14.8571L12.7961 15.2106L13.7017 16.11Z" fill="#81DDF9" stroke="#1E1F22" stroke-miterlimit="10"/>
    <path d="M18.8095 19.2142H20.0166L19.163 18.3607L17.5582 16.7559L19.1631 15.1504L20.0162 14.2969H18.8095H17.0045H16.7974L16.6509 14.4433L14.6919 16.4024L14.3382 16.756L14.6919 17.1096L16.651 19.0678L16.7974 19.2142H17.0045H18.8095Z" fill="#81DDF9" stroke="#1E1F22" stroke-miterlimit="10"/>
  </g>
  <defs>
    <clipPath id="clip0_1_162">
      <rect width="18" height="18" fill="white" transform="translate(1 1)"/>
    </clipPath>
  </defs>
</svg>
