<svg width="20" height="20" viewBox="0 0 20 20" fill="none" xmlns="http://www.w3.org/2000/svg">
  <g clip-path="url(#clip0_54_1487)">
    <path d="M13.1388 13.2666L10.3828 10.5286C10.3828 10.5286 10.5948 8.84462 10.5948 8.73862L9.32282 7.47562L7.52082 7.79162L9.32282 9.58162L8.26282 10.6346C7.62682 10.0026 6.46082 8.84462 6.46082 8.84462C6.46082 8.84462 6.14282 10.5286 6.14282 10.6346L7.41482 11.8976L9.21682 11.6876L11.9728 14.4246" fill="#6C707E"/>
    <path d="M14.1245 17.25H3.26951C3.12051 17.25 3.04751 17.227 2.90951 17.09C2.80651 16.987 2.74951 16.806 2.74951 16.74L2.75151 13.482C3.21551 13.348 3.58751 13.094 3.97351 12.807C4.00151 12.785 4.02851 12.763 4.05451 12.737C4.59851 12.197 4.91051 11.498 4.91051 10.819C4.91051 10.14 4.59851 9.441 4.05451 8.901C3.68051 8.529 3.23851 8.275 2.75151 8.148V5.149C2.75151 5.003 2.77351 4.936 2.91151 4.8C3.01551 4.696 3.20451 4.64 3.27151 4.64H6.82651C7.02051 4.64 7.21051 4.563 7.34951 4.428C7.50451 4.277 7.53051 4.088 7.61851 3.902C7.81051 3.497 8.08051 3.1 8.48851 2.888C8.86751 2.692 9.34151 2.686 9.72251 2.879C10.1485 3.096 10.5535 3.607 10.6705 4.073C10.7535 4.406 11.0535 4.64 11.3975 4.64H14.8265C14.9755 4.64 15.0485 4.663 15.1865 4.8C15.2895 4.902 15.3455 5.084 15.3455 5.149V8.551C15.3455 8.896 15.5815 9.196 15.9155 9.279C16.2125 9.353 16.6055 9.61 16.9635 9.965C16.9735 9.975 16.9825 9.989 16.9925 10H18.6395C18.5415 9.626 18.3625 9.24 18.0205 8.901C17.7335 8.616 17.3255 8.271 16.8455 8.035V5.149C16.8455 4.653 16.6095 4.099 16.2435 3.735C15.8335 3.329 15.3835 3.14 14.8265 3.14H11.9115C11.4165 2.149 10.5285 1.36 9.39751 1.248C8.04051 1.113 6.89951 1.967 6.31251 3.14H3.27151C2.77551 3.14 2.21951 3.374 1.85451 3.735C1.44351 4.143 1.25151 4.592 1.25151 5.149V8.803C1.25151 9.217 1.58751 9.553 2.00151 9.553C2.38651 9.553 2.72251 9.692 2.99751 9.965C3.25651 10.222 3.41051 10.541 3.41051 10.819C3.41051 11.084 3.27051 11.388 3.03151 11.638C2.60251 11.955 2.37851 12.085 2.00151 12.085C1.58751 12.085 1.25151 12.421 1.25151 12.835L1.24951 16.74C1.24951 17.236 1.48651 17.791 1.85251 18.154C2.26251 18.561 2.71251 18.75 3.26951 18.75H14.8265C15.0445 18.75 15.2725 18.698 15.4925 18.617L14.1245 17.25Z" fill="#6C707E"/>
    <path d="M17.0049 11L13.1489 14.855L14.0539 15.755L18.8109 11H17.0049Z" fill="#3574F0"/>
    <path d="M17.0049 18.7139H18.8099L16.8519 16.7559L18.8099 14.7969H17.0049L15.0459 16.7559L17.0049 18.7139Z" fill="#3574F0"/>
  </g>
  <defs>
    <clipPath id="clip0_54_1487">
      <rect width="18" height="18" fill="white" transform="translate(1 1)"/>
    </clipPath>
  </defs>
</svg>
