<!--
  - Copyright 2024 The Chromium Authors. All rights reserved.
  - Use of this source code is governed by a BSD-style license that can be
  - found in the LICENSE file.
  -->

<svg width="16" height="16" viewBox="0 0 16 16" fill="none" xmlns="http://www.w3.org/2000/svg">
  <path d="M2.56884 8.00292L3.41084 8.83892L10.3558 1.89592H8.67684L2.56884 8.00292ZM3.41184 10.0449C3.28484 10.0449 3.15684 9.99592 3.05984 9.89892L1.50784 8.35892C1.41384 8.26492 1.36084 8.13792 1.36084 8.00492C1.36084 7.87192 1.41284 7.74392 1.50684 7.64992L8.11584 1.04292C8.20984 0.948922 8.33684 0.895922 8.46984 0.895922H11.5628C11.7648 0.895922 11.9468 1.01792 12.0248 1.20492C12.1018 1.39192 12.0588 1.60692 11.9158 1.74992L3.76584 9.89892C3.66784 9.99592 3.53984 10.0449 3.41184 10.0449Z" fill="#548AF7"/>
  <path d="M8.67682 14.1162H10.3558L7.85382 11.6132C7.65782 11.4182 7.65782 11.1012 7.85382 10.9062L10.3558 8.40321H8.67682L5.81882 11.2602L8.67682 14.1162ZM11.5628 15.1162H8.46982C8.33682 15.1162 8.20982 15.0632 8.11582 14.9702L4.75882 11.6132C4.66482 11.5192 4.61182 11.3922 4.61182 11.2602C4.61182 11.1272 4.66482 11.0002 4.75882 10.9062L8.11582 7.54921C8.20982 7.45521 8.33682 7.40321 8.46982 7.40321H11.5628C11.7648 7.40321 11.9478 7.52421 12.0248 7.71121C12.1018 7.89821 12.0598 8.11321 11.9158 8.25621L8.91382 11.2602L11.9158 14.2622C12.0588 14.4052 12.1018 14.6212 12.0248 14.8072C11.9478 14.9942 11.7648 15.1162 11.5628 15.1162Z" fill="#548AF7"/>
</svg>
