<!--
  - Copyright 2024 The Chromium Authors. All rights reserved.
  - Use of this source code is governed by a BSD-style license that can be
  - found in the LICENSE file.
  -->

<svg width="17" height="16" viewBox="0 0 17 16" fill="none" xmlns="http://www.w3.org/2000/svg">
  <path d="M3.56884 8.00292L4.41084 8.83892L11.3558 1.89592H9.67684L3.56884 8.00292ZM4.41184 10.0449C4.28484 10.0449 4.15684 9.99592 4.05984 9.89892L2.50784 8.35892C2.41384 8.26492 2.36084 8.13792 2.36084 8.00492C2.36084 7.87192 2.41284 7.74392 2.50684 7.64992L9.11584 1.04292C9.20984 0.948922 9.33684 0.895922 9.46984 0.895922H12.5628C12.7648 0.895922 12.9468 1.01792 13.0248 1.20492C13.1018 1.39192 13.0588 1.60692 12.9158 1.74992L4.76584 9.89892C4.66784 9.99592 4.53984 10.0449 4.41184 10.0449Z" fill="#3574F0"/>
  <path d="M9.67682 14.1162H11.3558L8.85382 11.6132C8.65782 11.4182 8.65782 11.1012 8.85382 10.9062L11.3558 8.40321H9.67682L6.81882 11.2602L9.67682 14.1162ZM12.5628 15.1162H9.46982C9.33682 15.1162 9.20982 15.0632 9.11582 14.9702L5.75882 11.6132C5.66482 11.5192 5.61182 11.3922 5.61182 11.2602C5.61182 11.1272 5.66482 11.0002 5.75882 10.9062L9.11582 7.54921C9.20982 7.45521 9.33682 7.40321 9.46982 7.40321H12.5628C12.7648 7.40321 12.9478 7.52421 13.0248 7.71121C13.1018 7.89821 13.0598 8.11321 12.9158 8.25621L9.91382 11.2602L12.9158 14.2622C13.0588 14.4052 13.1018 14.6212 13.0248 14.8072C12.9478 14.9942 12.7648 15.1162 12.5628 15.1162Z" fill="#3574F0"/>
</svg>
