<svg width="20" height="20" viewBox="0 0 20 20" fill="none" xmlns="http://www.w3.org/2000/svg">
  <g clip-path="url(#clip0_54_1588)">
    <path d="M4.99213 9.9954L5.74192 10.7397L13.8335 2.64918H12.3405L4.99213 9.9954ZM5.74302 12.7285C5.53304 12.7285 5.32305 12.6483 5.16144 12.4888L3.24298 10.5825C3.08796 10.4275 3.00001 10.2175 3.00001 9.9976C2.99891 9.77881 3.08576 9.56883 3.24078 9.41381L11.4159 1.24194C11.5699 1.08692 11.7799 1.00007 11.9986 1.00007H15.8246C16.1577 1.00007 16.4589 1.20016 16.5864 1.5091C16.7129 1.81693 16.6436 2.17204 16.4072 2.40731L6.32571 12.4877C6.16519 12.6472 5.95411 12.7285 5.74302 12.7285Z" fill="#3574F0"/>
    <path d="M12.3402 17.3509H13.8331L11.0901 14.6079C10.768 14.2858 10.768 13.7635 11.0901 13.4414L13.8342 10.6962H12.3402L9.01226 14.0252L12.3402 17.3509ZM15.8242 19H11.9982C11.7795 19 11.5706 18.9131 11.4156 18.7581L7.26311 14.6079C7.10809 14.4529 7.02124 14.244 7.02124 14.0252C7.02124 13.8053 7.10809 13.5964 7.26311 13.4414L11.4156 9.28896C11.5706 9.13395 11.7795 9.0471 11.9982 9.0471H15.8242C16.1584 9.0471 16.4585 9.24829 16.5861 9.55612C16.7136 9.86395 16.6432 10.2191 16.4069 10.4554L12.8393 14.0252L16.4069 17.5928C16.6432 17.8291 16.7136 18.1831 16.5861 18.491C16.4585 18.7988 16.1584 19 15.8242 19Z" fill="#3574F0"/>
  </g>
  <defs>
    <clipPath id="clip0_54_1588">
      <rect width="20" height="20" fill="white"/>
    </clipPath>
  </defs>
</svg>
