<svg width="20" height="20" viewBox="0 0 20 20" fill="none" xmlns="http://www.w3.org/2000/svg">
  <g clip-path="url(#clip0_1_258)">
    <path d="M13.2455 15.7552L12.3398 14.8559L16.1965 11H18.0015L13.2455 15.7552Z" fill="#0468D7"/>
    <path d="M18.0003 18.7142H16.1953L14.2362 16.7559L16.1953 14.7969H18.0003L16.042 16.7559L18.0003 18.7142Z" fill="#0468D7"/>
    <g clip-path="url(#clip1_1_258)">
      <path d="M6.36289 8.4875C6.36289 9.5 6.70039 10.2875 7.37539 10.9625C8.05039 11.6375 8.83789 11.975 9.85039 11.975C10.8629 11.975 11.6504 11.6375 12.3254 10.9625C13.0004 10.2875 13.3379 9.5 13.3379 8.4875C13.3379 7.475 13.0004 6.6875 12.3254 6.0125C11.6504 5.3375 10.8629 5 9.85039 5C8.83789 5 8.05039 5.3375 7.37539 6.0125C6.70039 6.6875 6.36289 7.475 6.36289 8.4875Z" stroke="#6C707E" stroke-width="1.5" stroke-miterlimit="10" stroke-linecap="round" stroke-linejoin="round"/>
      <path d="M4 14.2234L7.375 10.9609" stroke="#6C707E" stroke-width="1.5" stroke-miterlimit="10" stroke-linecap="round" stroke-linejoin="round"/>
      <path d="M5.73748 1.78748H1.91248C1.23748 1.78748 0.787476 2.23748 0.787476 2.91248V6.62498" stroke="#6C707E" stroke-width="1.5" stroke-miterlimit="10" stroke-linecap="round" stroke-linejoin="round"/>
      <path d="M0.787476 13.15V17.0875C0.787476 17.7625 1.23748 18.2125 1.91248 18.2125H5.62498" stroke="#6C707E" stroke-width="1.5" stroke-miterlimit="10" stroke-linecap="round" stroke-linejoin="round"/>
      <path d="M17.1562 6.68096L17.1562 2.85596C17.1562 2.18096 16.7062 1.73096 16.0312 1.73096L12.3187 1.73096" stroke="#6C707E" stroke-width="1.5" stroke-miterlimit="10" stroke-linecap="round" stroke-linejoin="round"/>
    </g>
  </g>
  <defs>
    <clipPath id="clip0_1_258">
      <rect width="18" height="18" fill="white" transform="translate(0 1)"/>
    </clipPath>
    <clipPath id="clip1_1_258">
      <rect width="18" height="18" fill="white" transform="translate(0 1)"/>
    </clipPath>
  </defs>
</svg>
