<svg width="16" height="16" viewBox="0 0 16 16" fill="none" xmlns="http://www.w3.org/2000/svg">
  <path d="M11.7 12.7L11 12L14 9H15.4L11.7 12.7Z" fill="#548AF7"/>
  <path d="M15.4 15H14L12.5 13.5L14 12H15.4L13.9 13.5L15.4 15Z" fill="#548AF7"/>
  <path d="M10.4002 4.69995C9.8002 4.19995 9.1002 3.99995 8.3002 4.09995C7.5002 4.09995 6.8002 4.49995 6.3002 5.09995C5.8002 5.69995 5.6002 6.39995 5.7002 7.19995C5.7002 7.79995 6.0002 8.39995 6.4002 8.79995L4.6002 10.9C4.4002 11.1 4.4002 11.4 4.6002 11.6C4.6002 11.6 4.8002 11.7 4.9002 11.7C5.0002 11.7 5.2002 11.7 5.3002 11.5L7.1002 9.39995C7.5002 9.59995 8.0002 9.79995 8.5002 9.79995C9.0002 9.79995 8.7002 9.79995 8.8002 9.79995C9.6002 9.79995 10.3002 9.39995 10.8002 8.79995C11.3002 8.19995 11.5002 7.49995 11.4002 6.69995C11.4002 5.89995 11.0002 5.19995 10.4002 4.69995ZM10.1002 8.19995C9.8002 8.59995 9.4002 8.79995 8.8002 8.89995C8.2002 8.89995 7.8002 8.89995 7.4002 8.49995C7.0002 8.19995 6.8002 7.79995 6.7002 7.19995C6.7002 6.59995 6.7002 6.19995 7.1002 5.79995C7.4002 5.39995 7.8002 5.19995 8.4002 5.09995C9.0002 5.09995 9.4002 5.09995 9.8002 5.49995C10.2002 5.79995 10.4002 6.19995 10.5002 6.79995C10.5002 7.39995 10.5002 7.79995 10.1002 8.19995Z" fill="#CED0D6"/>
  <path d="M1.6001 5.89998C1.9001 5.89998 2.1001 5.69998 2.1001 5.39998V2.49998C2.1001 2.29998 2.2001 2.09998 2.5001 2.09998H5.5001C5.8001 2.09998 6.0001 1.89998 6.0001 1.59998C6.0001 1.29998 5.8001 1.09998 5.5001 1.09998H2.5001C1.7001 1.09998 1.1001 1.69998 1.1001 2.49998V5.39998C1.1001 5.69998 1.3001 5.89998 1.6001 5.89998Z" fill="#CED0D6"/>
  <path d="M5.4001 13.9H2.5001C2.3001 13.9 2.1001 13.8 2.1001 13.5V10.4C2.1001 10.1 1.9001 9.90002 1.6001 9.90002C1.3001 9.90002 1.1001 10.1 1.1001 10.4V13.5C1.1001 14.3 1.7001 14.9 2.5001 14.9H5.4001C5.7001 14.9 5.9001 14.7 5.9001 14.4C5.9001 14.1 5.7001 13.9 5.4001 13.9Z" fill="#CED0D6"/>
  <path d="M13.5001 1.09998H10.6001C10.3001 1.09998 10.1001 1.29998 10.1001 1.59998C10.1001 1.89998 10.3001 2.09998 10.6001 2.09998H13.5001C13.7001 2.09998 13.9001 2.19998 13.9001 2.49998V5.49998C13.9001 5.79998 14.1001 5.99998 14.4001 5.99998C14.7001 5.99998 14.9001 5.79998 14.9001 5.49998V2.49998C14.9001 1.69998 14.3001 1.09998 13.5001 1.09998Z" fill="#CED0D6"/>
</svg>
