<svg width="20" height="20" viewBox="0 0 20 20" fill="none" xmlns="http://www.w3.org/2000/svg">
  <g clip-path="url(#clip0_54_1573)">
    <path d="M11.7949 10.4321C11.2469 10.9801 10.6479 11.2241 9.85086 11.2241C9.05286 11.2241 8.45386 10.9801 7.90586 10.4321C7.35786 9.88412 7.11286 9.28412 7.11286 8.48712C7.11286 7.69112 7.35786 7.09112 7.90586 6.54312C8.45386 5.99512 9.05386 5.75012 9.85086 5.75012C10.6479 5.75012 11.2469 5.99512 11.7949 6.54312C12.3439 7.09112 12.5879 7.69112 12.5879 8.48712C12.5879 9.28412 12.3439 9.88412 11.7949 10.4321ZM9.85086 4.25012C8.65686 4.25012 7.67386 4.65312 6.84486 5.48212C6.01586 6.31112 5.61286 7.29412 5.61286 8.48712C5.61286 9.41112 5.86086 10.2061 6.35486 10.9041L3.47886 13.6841C3.18086 13.9731 3.17286 14.4471 3.46086 14.7451C3.60786 14.8971 3.80386 14.9741 3.99986 14.9741C4.18786 14.9741 4.37586 14.9031 4.52186 14.7631L7.41386 11.9661C8.11686 12.4701 8.91786 12.7241 9.85086 12.7241C11.0439 12.7241 12.0269 12.3211 12.8559 11.4931C13.6849 10.6631 14.0879 9.68012 14.0879 8.48712C14.0879 7.29412 13.6849 6.31112 12.8559 5.48212C12.0269 4.65312 11.0439 4.25012 9.85086 4.25012Z" fill="#6C707E"/>
    <path d="M0.787598 7.375C1.2016 7.375 1.5376 7.039 1.5376 6.625V2.913C1.5376 2.653 1.6536 2.538 1.9126 2.538H5.7376C6.1516 2.538 6.4876 2.202 6.4876 1.788C6.4876 1.374 6.1516 1.038 5.7376 1.038H1.9126C0.826598 1.038 0.0375977 1.826 0.0375977 2.913V6.625C0.0375977 7.039 0.373598 7.375 0.787598 7.375Z" fill="#6C707E"/>
    <path d="M5.62509 17.4629H1.91309C1.65309 17.4629 1.53809 17.3479 1.53809 17.0879V13.1509C1.53809 12.7359 1.20209 12.4009 0.788086 12.4009C0.374086 12.4009 0.0380859 12.7359 0.0380859 13.1509V17.0879C0.0380859 18.1749 0.826086 18.9629 1.91309 18.9629H5.62509C6.03909 18.9629 6.37509 18.6269 6.37509 18.2129C6.37509 17.7989 6.03909 17.4629 5.62509 17.4629Z" fill="#6C707E"/>
    <path d="M16.0314 0.98103H12.3184C11.9044 0.98103 11.5684 1.31703 11.5684 1.73103C11.5684 2.14503 11.9044 2.48103 12.3184 2.48103H16.0314C16.2914 2.48103 16.4064 2.59703 16.4064 2.85603V6.68103C16.4064 7.09503 16.7424 7.43103 17.1564 7.43103C17.5704 7.43103 17.9064 7.09503 17.9064 6.68103V2.85603C17.9064 1.77003 17.1184 0.98103 16.0314 0.98103Z" fill="#6C707E"/>
    <path d="M13.2456 15.7552L12.3396 14.8562L16.1966 11.0002H18.0016L13.2456 15.7552Z" fill="#3574F0"/>
    <path d="M18.0003 18.7142H16.1953L14.2363 16.7562L16.1953 14.7972H18.0003L16.0423 16.7562L18.0003 18.7142Z" fill="#3574F0"/>
  </g>
  <defs>
    <clipPath id="clip0_54_1573">
      <rect width="18" height="18" fill="white" transform="translate(0 1)"/>
    </clipPath>
  </defs>
</svg>
