<!--
  - Copyright 2025 The Chromium Authors. All rights reserved.
  - Use of this source code is governed by a BSD-style license that can be
  - found in the LICENSE file.
  -->

<svg width="16" height="16" viewBox="0 0 16 16" fill="none" xmlns="http://www.w3.org/2000/svg">
<path d="M15.0996 11.7852L13.5088 13.377L15.0996 14.9678H13.6328L12.042 13.377L13.6328 11.7852H15.0996ZM15.0996 8.7002L11.2363 12.5635L10.5 11.833L13.6338 8.7002H15.0996Z" fill="#6C707E"/>
<path d="M14.5 6.5V2.5C14.5 1.94772 14.0523 1.5 13.5 1.5H2.5C1.94772 1.5 1.5 1.94772 1.5 2.5V13.4C1.5 13.9523 1.94772 14.4 2.5 14.4H10" stroke="#6C707E" stroke-width="1.05"/>
<path d="M13.9746 2.02539V3.5752H2.02539V2.02539H13.9746Z" fill="#6C707E" stroke="#6C707E" stroke-width="1.05"/>
<path d="M8 6.9375C9.22667 6.9375 10.32 7.5375 10.8933 8.5C10.32 9.4625 9.22667 10.0625 8 10.0625C6.77333 10.0625 5.68 9.4625 5.10667 8.5C5.68 7.5375 6.77333 6.9375 8 6.9375ZM8 6C6.18 6 4.62667 7.0375 4 8.5C4.62667 9.9625 6.18 11 8 11C9.82 11 11.3733 9.9625 12 8.5C11.3733 7.0375 9.82 6 8 6ZM8 9.4375C7.44667 9.4375 7 9.01875 7 8.5C7 7.98125 7.44667 7.5625 8 7.5625C8.55333 7.5625 9 7.98125 9 8.5C9 9.01875 8.55333 9.4375 8 9.4375Z" fill="#6C707E"/>
</svg>
