<!--
  - Copyright 2025 The Chromium Authors. All rights reserved.
  - Use of this source code is governed by a BSD-style license that can be
  - found in the LICENSE file.
  -->

<svg width="16" height="16" viewBox="0 0 16 16" fill="none" xmlns="http://www.w3.org/2000/svg">
<path d="M15.0996 11.7852L13.5088 13.377L15.0996 14.9678H13.6328L12.042 13.377L13.6328 11.7852H15.0996ZM15.0996 8.7002L11.2363 12.5635L10.5 11.833L13.6338 8.7002H15.0996Z" fill="#CED0D6"/>
<path d="M14.5 6.5V2.5C14.5 1.94772 14.0523 1.5 13.5 1.5H2.5C1.94772 1.5 1.5 1.94772 1.5 2.5V13.4C1.5 13.9523 1.94772 14.4 2.5 14.4H10" stroke="#CED0D6" stroke-width="1.05"/>
<path d="M13.9746 2.02539V3.5752H2.02539V2.02539H13.9746Z" fill="#CED0D6" stroke="#CED0D6" stroke-width="1.05"/>
<path d="M8 6.2998C9.65674 6.2998 11.0593 7.21686 11.668 8.5C11.0593 9.78314 9.65674 10.7002 8 10.7002C6.3431 10.7002 4.93967 9.78334 4.33105 8.5C4.93967 7.21666 6.3431 6.2998 8 6.2998ZM8 6.6377C6.67687 6.6377 5.48064 7.28568 4.84863 8.34668L4.75781 8.5L4.84863 8.65332C5.48064 9.71432 6.67687 10.3623 8 10.3623C9.32313 10.3623 10.5194 9.71432 11.1514 8.65332L11.2422 8.5L11.1514 8.34668C10.5194 7.28568 9.32313 6.6377 8 6.6377ZM8 7.8623C8.40618 7.8623 8.7002 8.16488 8.7002 8.5C8.7002 8.83512 8.40618 9.1377 8 9.1377C7.59382 9.1377 7.2998 8.83512 7.2998 8.5C7.2998 8.16488 7.59382 7.8623 8 7.8623Z" fill="#CED0D6" stroke="#CED0D6" stroke-width="0.6"/>
</svg>
