<svg width="20" height="20" viewBox="0 0 20 20" fill="none" xmlns="http://www.w3.org/2000/svg">
<path d="M19.0249 14.9004L16.9761 16.9512L19.0249 19H17.1362L15.0864 16.9512L17.1362 14.9004H19.0249ZM19.0249 10.9258L14.0483 15.9023L13.1001 14.9619L17.1372 10.9258H19.0249Z" fill="#3574F0"/>
<path d="M17.1094 0.974609C18.1942 0.97468 19.0742 1.85461 19.0742 2.93945V8.0918H17.7207V5.00098H2.32812V16.9805C2.3284 17.3181 2.60174 17.5927 2.93945 17.5928H12.6006V18.9443H2.93945C1.85474 18.9443 0.974881 18.0651 0.974609 16.9805V2.93945C0.974661 1.8546 1.8546 0.974661 2.93945 0.974609H17.1094ZM10.0244 7.44824C12.3688 7.44829 14.3695 8.78505 15.1768 10.6689C14.3694 12.5526 12.3686 13.8886 10.0244 13.8887C7.68019 13.8887 5.67946 12.5526 4.87207 10.6689C5.67931 8.78502 7.67997 7.44824 10.0244 7.44824ZM10.0244 8.65625C8.44428 8.65625 7.03542 9.4291 6.29688 10.6689C7.03544 11.9087 8.44435 12.6816 10.0244 12.6816C11.6043 12.6816 13.0124 11.9085 13.751 10.6689C13.0125 9.42913 11.6045 8.65629 10.0244 8.65625ZM10.0244 9.46094C10.7371 9.461 11.3125 10.0008 11.3125 10.6689C11.3122 11.3369 10.737 11.8759 10.0244 11.876C9.31179 11.876 8.73658 11.337 8.73633 10.6689C8.73633 10.0007 9.31164 9.46094 10.0244 9.46094Z" fill="#6C707E"/>
</svg>
