<svg width="16" height="16" viewBox="0 0 16 16" fill="none" xmlns="http://www.w3.org/2000/svg">
<path d="M15.0996 11.785L13.5088 13.3768L15.0996 14.9677H13.6328L12.042 13.3768L13.6328 11.785H15.0996ZM15.0996 8.70007L11.2363 12.5634L10.5 11.8329L13.6338 8.70007H15.0996Z" fill="#3574F0"/>
<path d="M13.5 0.974609C14.3422 0.974609 15.0254 1.65777 15.0254 2.5V6.5H13.9746V4.09961H2.02539V13.4004C2.0256 13.6625 2.2378 13.875 2.5 13.875H10V14.9248H2.5C1.6579 14.9248 0.974821 14.2424 0.974609 13.4004V2.5C0.974609 1.65777 1.65777 0.974609 2.5 0.974609H13.5ZM8 6C9.82 6 11.3733 7.0375 12 8.5C11.3733 9.9625 9.82 11 8 11C6.18 11 4.62667 9.9625 4 8.5C4.62667 7.0375 6.18 6 8 6ZM8 6.9375C6.77333 6.9375 5.67978 7.5375 5.10645 8.5C5.67978 9.4625 6.77333 10.0625 8 10.0625C9.22667 10.0625 10.3202 9.4625 10.8936 8.5C10.3202 7.5375 9.22667 6.9375 8 6.9375ZM8 7.5625C8.55333 7.5625 9 7.98125 9 8.5C9 9.01875 8.55333 9.4375 8 9.4375C7.44667 9.4375 7 9.01875 7 8.5C7 7.98125 7.44667 7.5625 8 7.5625Z" fill="#6C707E"/>
</svg>
